<svg version="1.1" id="Layer_1" xmlns="http://www.w3.org/2000/svg" xmlns:xlink="http://www.w3.org/1999/xlink" x="0px" y="0px"
	 width="100%" viewBox="0 0 1266 822" enable-background="new 0 0 1266 822" xml:space="preserve">
<path fill="none" opacity="1.000000" stroke="#c9a55c" stroke-linecap="round" stroke-linejoin="round" stroke-width="7.000000"
	d="
M1025.500000,52.500000 
	C1012.459351,50.140713 999.676941,51.166363 986.988953,54.963165 
	C965.693665,61.335655 953.815796,80.818985 954.555359,101.498016 
	C954.651306,104.179138 954.839844,107.216034 956.122620,109.428909 
	C960.118042,116.320900 960.096558,124.327141 962.906311,131.536530 
	C965.105957,137.180618 960.248535,143.504166 953.502563,143.371292 
	C944.336487,143.190781 935.093140,144.853226 925.950562,142.168350 
	C923.784241,141.532181 921.016602,143.302414 918.496765,143.440552 
	C912.173279,143.787170 905.833374,143.977310 899.500000,143.978745 
	C773.000000,144.007217 646.498901,144.307266 520.000549,143.845627 
	C470.833679,143.666214 421.647797,144.539108 372.504730,143.310593 
	C313.329041,141.831284 254.164658,143.158371 195.000366,142.468369 
	C185.831055,142.361450 176.641693,141.259521 167.506836,141.657043 
	C157.850998,142.077255 148.428818,141.618729 138.971359,139.636627 
	C136.197510,139.055298 133.928268,138.777206 132.415237,136.046967 
	C131.752487,134.851059 130.166672,134.166672 129.000000,133.250000 
"/>
<path fill="none" opacity="1.000000" stroke="#c9a55c" stroke-linecap="round" stroke-linejoin="round" stroke-width="7.000000"
	d="
M1107.000000,165.000000 
	C1109.037720,168.947296 1109.040283,173.262970 1108.963013,177.499329 
	C1108.125366,223.331070 1108.964844,269.170410 1108.421997,314.999084 
	C1107.677612,377.833740 1108.582520,440.670563 1107.870972,503.498535 
	C1107.482178,537.835449 1108.121460,572.174438 1107.371338,606.497192 
	C1106.952515,625.665527 1106.890137,644.838074 1106.366211,663.996338 
	C1106.019409,676.670654 1106.285034,689.335205 1105.994385,701.999878 
	C1105.072021,742.163696 1105.671997,782.333374 1105.500000,822.500000 
"/>
<path fill="none" opacity="1.000000" stroke="#c9a55c" stroke-linecap="round" stroke-linejoin="round" stroke-width="10.000000"
	d="
M1112.000000,157.999969 
	C1111.166626,158.999969 1109.894165,159.881195 1109.585327,161.023041 
	C1108.776978,164.010803 1107.186035,163.625717 1104.507446,163.717453 
	C1096.486694,163.992096 1088.502563,163.623627 1080.499512,163.575150 
	C1049.833984,163.389420 1019.166687,163.500000 988.500000,163.500000 
	C960.166687,163.500000 931.833313,163.500000 903.500000,163.500000 
	C883.333313,163.500000 863.165588,163.370789 843.000305,163.538727 
	C825.165466,163.687241 807.309021,164.868454 789.508545,164.252960 
	C777.669006,163.843582 765.834534,163.485947 754.000366,163.558411 
	C736.165649,163.667633 718.323364,164.699905 700.502502,164.366959 
	C677.498169,163.937134 654.492371,163.745255 631.501953,164.120682 
	C605.831787,164.539886 580.158875,164.003143 554.503113,164.627228 
	C540.496338,164.967911 526.498962,164.748047 512.500000,165.000275 
	C510.773285,165.031387 509.086121,164.907440 507.452972,165.924454 
	C506.705261,166.390060 505.752197,167.027863 504.484253,166.540985 
	C497.290009,163.778397 489.866791,165.320724 482.499237,165.459641 
	C473.502441,165.629272 464.499939,165.484528 455.500031,165.513596 
	C453.786469,165.519135 452.168762,165.439560 450.452240,166.416016 
	C446.967438,168.398376 443.184448,169.751129 438.998474,169.008606 
	C437.411163,168.727066 436.828705,170.538818 435.946655,170.847702 
	C428.038849,173.617020 422.629486,180.329575 414.604004,183.282623 
	C403.632111,187.319809 392.040283,190.147537 382.019470,196.530563 
	C372.421173,202.644424 361.264954,206.241699 353.000000,214.500000 
"/>
<path fill="none" opacity="1.000000" stroke="#c9a55c" stroke-linecap="round" stroke-linejoin="round" stroke-width="5.000000"
	d="
M1084.000000,822.500000 
	C1084.455078,816.000000 1083.858398,809.490845 1083.808105,803.001465 
	C1083.485596,761.490234 1085.927002,720.000732 1084.834473,678.504333 
	C1084.504639,665.976196 1085.941650,653.469238 1084.881714,641.010071 
	C1084.083252,631.625854 1085.566528,622.335693 1085.022461,612.998718 
	C1084.834229,609.768677 1085.493286,606.406494 1083.470947,603.520386 
	C1082.909912,602.719788 1083.331909,602.231140 1083.413696,601.490479 
	C1084.973022,587.362854 1084.453491,573.172485 1084.799683,559.007324 
	C1085.137451,545.190857 1084.892700,531.288452 1086.485107,517.498291 
	C1086.598999,516.511414 1086.484985,515.499756 1086.502197,514.500061 
	C1087.314941,467.168945 1086.566772,419.829712 1087.104858,372.501190 
	C1087.563477,332.165405 1087.238403,291.832733 1087.537109,251.500275 
	C1087.634644,238.331863 1088.109375,225.164886 1088.518677,212.000580 
	C1088.825928,202.118439 1087.713257,192.323410 1087.076416,182.495041 
	C1086.987305,181.119568 1086.220093,180.431641 1085.465454,180.072693 
	C1083.427612,179.103363 1081.356445,177.986725 1079.000122,178.011261 
	C1071.498413,178.089355 1063.980347,177.621170 1056.502930,178.524597 
	C1054.313232,178.789154 1052.067871,179.129639 1050.500000,181.000000 
"/>
<path fill="none" opacity="1.000000" stroke="#c9a55c" stroke-linecap="round" stroke-linejoin="round" stroke-width="6.000000"
	d="
M1126.000000,152.500000 
	C1125.666748,287.833344 1125.333374,423.166656 1125.000000,558.500000 
"/>
<path fill="none" opacity="1.000000" stroke="#c9a55c" stroke-linecap="round" stroke-linejoin="round" stroke-width="5.000000"
	d="
M426.000000,174.000000 
	C422.837646,171.956772 419.771088,172.124496 415.955811,172.714111 
	C409.929413,173.645462 403.661102,173.426163 397.496643,173.961319 
	C369.052734,176.430527 340.544128,177.373932 312.000336,176.976456 
	C283.832184,176.584198 255.658295,176.269699 227.503281,175.394669 
	C211.661362,174.902313 195.831619,175.301132 180.000198,174.990036 
	C167.167648,174.737915 154.334167,175.006531 141.495270,174.695267 
	C135.016373,174.538208 128.137741,174.145370 122.000000,177.500000 
"/>
<path fill="none" opacity="1.000000" stroke="#c9a55c" stroke-linecap="round" stroke-linejoin="round" stroke-width="5.000000"
	d="
M958.000000,199.000000 
	C953.911072,200.967575 950.202148,200.955292 945.920166,198.648117 
	C940.285522,195.612076 933.618408,195.286530 927.531494,193.398468 
	C920.117432,191.098724 912.192078,191.093231 904.999939,188.000168 
	C903.833862,187.498718 902.362122,187.292542 901.552490,186.449600 
	C897.952271,182.701447 893.384216,183.574600 888.999939,183.503418 
	C868.000061,183.162460 846.989380,183.139481 826.003052,182.412140 
	C805.830017,181.712997 785.656982,181.799423 765.502747,182.154358 
	C749.172791,182.441971 732.799683,182.733887 716.516235,183.757767 
	C704.177307,184.533615 691.744263,184.202240 679.550171,185.867462 
	C675.377991,186.437241 670.311157,187.584564 666.665833,189.775833 
	C661.287598,193.008728 655.525146,192.723572 649.976257,193.886871 
	C636.616394,196.687714 622.892883,197.129227 609.463928,199.820084 
	C602.935120,201.128342 596.122864,201.272339 589.495911,202.477386 
	C579.520752,204.291290 569.827332,206.969131 560.491882,210.981064 
	C544.244141,217.963547 527.372131,223.367416 511.045074,230.109161 
	C489.057190,239.188339 467.133667,248.378571 446.360565,260.256134 
	C435.745758,266.325439 425.710541,273.466919 414.500000,278.500000 
"/>
<path fill="none" opacity="1.000000" stroke="#c9a55c" stroke-linecap="round" stroke-linejoin="round" stroke-width="5.000000"
	d="
M1041.000000,298.500000 
	C1044.614624,293.458679 1043.492188,287.757721 1042.372681,282.527252 
	C1038.564819,264.737701 1025.776123,253.953644 1011.501526,244.497665 
	C999.626099,236.630905 986.468140,232.159286 972.490112,230.065918 
	C967.831421,229.368240 964.758423,225.209076 960.000732,224.984192 
	C958.662537,224.920959 957.335999,224.552292 955.999512,224.520874 
	C951.521545,224.415588 947.442810,223.393906 943.446838,221.092255 
	C937.031189,217.396866 929.529602,216.838409 922.476929,215.093109 
	C909.056458,211.771957 895.601990,208.363205 881.971130,206.180435 
	C868.534424,204.028748 854.990417,202.293274 841.532104,200.284698 
	C805.125854,194.851288 768.545837,195.958771 732.001160,196.186356 
	C717.850708,196.274460 703.654907,197.681656 689.516174,198.720184 
	C672.184326,199.993225 654.857178,201.172180 637.502014,202.040298 
	C632.822021,202.274384 628.166687,203.000000 623.500000,203.500000 
"/>
<path fill="none" opacity="1.000000" stroke="#c9a55c" stroke-linecap="round" stroke-linejoin="round" stroke-width="5.000000"
	d="
M355.000000,227.500000 
	C352.065704,233.559540 345.944244,234.801376 340.459503,236.357269 
	C333.025391,238.466202 325.196960,238.700302 317.507721,239.568497 
	C310.182007,240.395676 302.916046,241.730103 295.499908,241.502945 
	C289.333923,241.314056 283.085968,242.266800 277.016846,240.923813 
	C271.314209,239.661896 265.651917,240.829086 259.995605,240.711411 
	C240.902512,240.314148 221.930801,238.677017 203.008148,236.431366 
	C189.172821,234.789429 176.057983,230.185715 162.992020,225.522369 
	C155.164474,222.728638 147.994064,218.437454 140.043381,215.865860 
	C136.527237,214.728577 133.198898,213.697311 129.497742,213.969269 
	C128.280365,214.058746 127.181236,214.034286 125.936729,213.082748 
	C121.940140,210.026978 117.144470,207.860626 113.624336,204.374451 
	C108.545158,199.344299 102.320930,196.282928 96.511726,192.482071 
	C95.429695,191.774124 94.499992,190.833344 93.499992,190.000000 
"/>
<path fill="none" opacity="1.000000" stroke="#c9a55c" stroke-linecap="round" stroke-linejoin="round" stroke-width="5.000000"
	d="
M500.500000,257.500000 
	C494.757446,254.892944 489.508545,256.997925 484.522858,259.544739 
	C467.130463,268.429138 449.698669,277.252838 432.551971,286.595367 
	C422.727875,291.948151 413.034027,297.539886 402.996094,302.492065 
	C386.451141,310.654419 368.948334,316.118652 350.980560,319.907806 
	C332.380157,323.830383 313.684998,327.470734 294.499481,327.022430 
	C290.239685,326.922882 285.795532,327.817902 282.500000,324.000000 
"/>
<path fill="none" opacity="1.000000" stroke="#c9a55c" stroke-linecap="round" stroke-linejoin="round" stroke-width="6.000000"
	d="
M67.000000,151.500000 
	C68.016640,157.845886 73.639503,157.164780 77.507149,157.311142 
	C95.668678,157.998352 113.812302,158.027649 132.017212,156.744232 
	C148.435623,155.586777 165.044266,155.748795 181.487183,156.717575 
	C197.000854,157.631607 212.486221,157.913040 227.999985,158.003754 
	C254.166733,158.156754 280.354889,157.784973 306.487762,158.811371 
	C315.091034,159.149292 324.147949,158.473770 332.645721,162.707504 
	C336.450897,164.603317 341.842987,163.197052 346.498108,163.526718 
	C358.337128,164.365036 370.166321,163.419601 382.000092,163.483200 
	C395.499695,163.555740 409.000580,163.428101 422.499695,163.537048 
	C427.563721,163.577911 432.740356,163.678162 436.500000,168.000000 
"/>
<path fill="none" opacity="1.000000" stroke="#c9a55c" stroke-linecap="round" stroke-linejoin="round" stroke-width="7.000000"
	d="
M836.000000,304.000000 
	C836.333313,304.500000 836.929260,304.984619 836.959534,305.502380 
	C837.285706,311.074951 838.365356,316.211823 842.390259,320.600677 
	C844.175293,322.547150 842.505310,325.221130 841.524719,327.510590 
	C836.794128,338.556335 830.354065,348.782684 826.824768,360.446991 
	C824.522461,368.056061 823.285767,375.699768 822.513977,383.501373 
	C821.136353,397.425934 822.283813,411.286469 824.593506,424.984222 
	C827.586365,442.733765 833.665588,459.556366 842.057678,475.469574 
	C845.829834,482.622437 849.431580,489.873596 854.867737,496.115173 
	C857.703491,499.371155 858.732544,503.941559 858.500000,508.500000 
"/>
<path fill="none" opacity="1.000000" stroke="#c9a55c" stroke-linecap="round" stroke-linejoin="round" stroke-width="6.000000"
	d="
M1104.000000,140.500000 
	C1103.016113,133.781265 1104.680298,127.923294 1109.491821,122.992020 
	C1123.666748,108.464447 1123.778320,91.347969 1116.799927,74.080841 
	C1109.493408,56.001694 1097.998779,40.877129 1079.491211,32.519566 
	C1065.340820,26.129625 1050.851074,26.402533 1036.537720,31.603949 
	C1027.760742,34.793533 1022.597351,41.497959 1021.500000,51.000000 
"/>
<path fill="none" opacity="1.000000" stroke="#c9a55c" stroke-linecap="round" stroke-linejoin="round" stroke-width="9.000000"
	d="
M982.500000,488.500000 
	C994.501099,479.834473 1005.270996,469.920563 1013.486389,457.490997 
	C1022.392822,444.015808 1026.745972,429.299500 1026.618164,412.999084 
	C1026.485718,396.108887 1021.664551,381.170471 1010.457275,368.537903 
	C1002.560364,359.636597 992.637390,355.166962 980.499390,356.494202 
	C977.498718,356.822388 974.496155,354.824585 971.385254,357.359161 
	C969.606506,358.808350 967.366394,359.643555 966.509888,362.003601 
	C965.052795,366.018585 962.403137,368.476807 958.000000,368.750000 
"/>
<path fill="none" opacity="1.000000" stroke="#c9a55c" stroke-linecap="round" stroke-linejoin="round" stroke-width="6.000000"
	d="
M797.500000,521.000000 
	C798.828247,520.412415 798.748108,518.859192 799.901489,517.883545 
	C806.468018,512.329285 806.670044,508.082214 800.964294,501.531097 
	C799.193604,499.498047 797.161194,497.608124 794.971008,496.040527 
	C787.126038,490.425659 786.487061,480.256500 780.500000,473.500000 
	C780.882874,463.498352 775.480835,454.714722 774.499268,445.000061 
	C774.034485,440.400330 773.724365,435.778290 770.525574,431.978455 
	C769.309326,430.533661 770.055847,428.659119 770.034180,426.999542 
	C769.874451,414.770020 771.654724,402.663452 772.614502,390.509033 
	C772.984802,385.819305 773.097473,381.149139 772.918640,376.503143 
	C772.616882,368.664246 766.428162,363.377167 758.516602,364.606689 
	C749.518799,366.005066 741.139709,369.197693 735.005127,376.504303 
	C731.693298,380.448822 731.226685,384.390015 733.500000,388.500000 
"/>
<path fill="none" opacity="1.000000" stroke="#c9a55c" stroke-linecap="round" stroke-linejoin="round" stroke-width="4.000000"
	d="
M790.500000,366.500000 
	C795.410828,373.298889 800.144653,380.743469 800.130005,388.999359 
	C800.116333,396.709961 804.623962,403.132568 803.799805,411.031281 
	C803.050110,418.216858 804.698975,425.681915 805.529358,432.996674 
	C807.022522,446.149628 811.728271,458.383911 818.682861,469.384369 
	C825.843750,480.711212 832.710022,492.426788 842.955750,501.549683 
	C847.073486,505.216156 851.127686,508.602234 856.999756,508.487701 
	C859.143799,508.445892 860.522949,509.812347 861.994629,511.006622 
	C870.782532,518.137878 880.056519,524.567810 890.520813,528.950256 
	C907.667053,536.131104 925.198425,539.283508 944.050842,536.323669 
	C954.300232,534.714417 964.078613,531.315491 974.454895,530.111389 
	C981.384766,529.307190 987.550598,524.157227 993.476868,519.967285 
	C1001.609863,514.217285 1009.654663,508.318970 1016.472961,500.974915 
	C1017.762634,499.585938 1019.171448,499.266937 1020.973083,498.876038 
	C1026.448486,497.687958 1029.156860,492.725616 1032.394531,488.910492 
	C1042.543945,476.951233 1050.578491,463.489563 1058.439331,449.964752 
	C1060.347290,446.682312 1062.330566,443.649689 1065.497803,441.496704 
	C1068.331421,439.570435 1068.514648,435.749969 1068.630493,433.481140 
	C1068.905151,428.097412 1072.207275,424.006561 1073.068970,419.011902 
	C1073.846313,414.505676 1075.583008,410.169678 1075.500000,405.500000 
"/>
<path fill="none" opacity="1.000000" stroke="#c9a55c" stroke-linecap="round" stroke-linejoin="round" stroke-width="6.000000"
	d="
M927.000000,238.500000 
	C923.147400,235.043396 918.421143,233.661407 913.513977,232.443695 
	C905.628601,230.486908 897.634216,228.693970 890.062134,225.835342 
	C883.858826,223.493439 878.004395,221.525314 871.500549,224.001419 
	C867.106689,225.674179 863.366577,223.022629 859.533447,221.887177 
	C850.022705,219.069885 840.215027,218.713989 830.505249,217.459305 
	C819.540039,216.042358 808.403931,217.104218 797.498474,215.007828 
	C797.177063,214.946045 796.832520,215.015305 796.500122,214.997757 
	C789.169189,214.610886 782.197021,217.399155 774.323853,214.474030 
	C767.679138,212.005310 759.500732,213.603104 751.999817,213.518097 
	C744.667419,213.434982 737.333313,213.500000 730.000000,213.500000 
	C722.666687,213.500000 715.325439,213.282059 708.001709,213.546661 
	C693.995911,214.052704 680.002563,214.907440 665.996399,215.396454 
	C664.428711,215.451187 663.371521,216.266541 662.011963,216.556122 
	C650.266724,219.057800 638.363770,218.354523 626.500122,218.508072 
	C616.666260,218.635345 606.819214,218.566162 597.004395,219.083572 
	C588.982788,219.506454 580.929688,220.250504 573.014893,221.587982 
	C557.301453,224.243301 541.474121,226.671326 527.000000,234.000000 
"/>
<path fill="none" opacity="1.000000" stroke="#c9a55c" stroke-linecap="round" stroke-linejoin="round" stroke-width="7.000000"
	d="
M1031.000000,336.000000 
	C1030.000000,334.333344 1028.578735,332.776123 1028.109985,330.971436 
	C1027.562622,328.863983 1025.881104,326.885284 1028.803467,324.279572 
	C1031.486328,321.887451 1031.435791,318.218811 1028.639648,314.397766 
	C1019.080383,301.334320 1006.315430,294.818359 990.533508,292.290863 
	C980.268433,290.646881 970.072876,290.293030 960.041992,291.782776 
	C953.471375,292.758667 947.390076,293.968201 940.466187,293.476410 
	C931.901245,292.868042 923.658997,297.325378 916.572876,302.597961 
	C914.907471,303.837158 913.844055,304.701355 911.497681,304.669556 
	C906.901184,304.607239 903.079712,307.287109 899.515503,310.020203 
	C897.265808,311.745331 895.301758,313.867798 892.959839,315.440216 
	C890.857178,316.851990 890.205994,318.515076 889.893372,320.986511 
	C889.206360,326.417633 886.184875,331.124329 883.875977,335.940552 
	C877.955505,348.290588 874.197876,361.442474 871.468933,374.597290 
	C869.889404,382.211456 871.163025,390.839722 871.529236,398.998688 
	C872.013916,409.796234 873.766968,420.299042 878.950012,430.026642 
	C880.953796,433.787323 883.477478,437.132751 886.019653,440.485107 
	C888.713440,444.037384 891.634033,447.104614 892.782776,451.932739 
	C893.916809,456.699097 898.890869,459.474670 903.049438,461.915741 
	C914.459961,468.613647 926.395691,471.803284 940.046509,469.248413 
	C951.216125,467.157867 961.523315,463.792084 970.445068,456.928619 
	C978.666077,450.604248 985.654846,442.968018 990.953552,433.972656 
	C992.728210,430.959900 994.638550,428.305206 998.000000,427.000000 
"/>
<path fill="none" opacity="1.000000" stroke="#c9a55c" stroke-linecap="round" stroke-linejoin="round" stroke-width="4.000000"
	d="
M408.500000,281.500000 
	C391.119751,292.714905 371.945404,300.179199 352.405090,306.191589 
	C339.729889,310.091583 326.389465,312.256714 313.014862,313.643402 
	C304.269409,314.550140 295.641754,316.718262 287.018188,318.584015 
	C284.963379,319.028625 282.823334,320.031891 281.500000,322.000000 
"/>
<path fill="none" opacity="1.000000" stroke="#c9a55c" stroke-linecap="round" stroke-linejoin="round" stroke-width="3.000000"
	d="
M159.500000,185.500000 
	C163.954544,189.658127 164.415802,192.310333 161.500000,197.000000 
	C159.324539,200.498917 160.334610,205.035156 165.060684,208.926300 
	C170.512970,213.415359 176.512512,217.342651 183.528122,218.870926 
	C186.357544,219.487289 189.758804,217.819504 192.456161,218.643524 
	C205.633987,222.669220 218.902161,226.415970 232.521805,228.346100 
	C241.740845,229.652603 251.161911,229.629761 260.501007,229.972519 
	C279.001587,230.651520 297.342529,228.957077 315.478638,225.391327 
	C319.395355,224.621277 323.740997,224.484543 327.000000,221.500000 
"/>
<path fill="none" opacity="1.000000" stroke="#c9a55c" stroke-linecap="round" stroke-linejoin="round" stroke-width="6.000000"
	d="
M918.500000,354.750000 
	C921.193604,355.230011 921.026672,352.748871 921.421143,351.475555 
	C926.933105,333.683380 937.754761,320.189514 952.857666,309.302582 
	C962.320312,302.481445 972.918884,301.358582 983.522827,300.210663 
	C993.646606,299.114685 1002.892639,303.297058 1011.492981,308.511627 
	C1014.587891,310.388092 1016.633972,313.362671 1019.015137,315.986267 
	C1020.248413,317.345154 1020.515137,319.241119 1019.858826,320.421509 
	C1019.057007,321.863617 1017.144958,321.480957 1015.490540,321.035187 
	C1010.087219,319.579376 1005.042969,317.191315 999.548889,315.806000 
	C984.393005,311.984436 971.136230,314.754974 958.967529,324.459259 
	C946.288757,334.570099 939.877319,348.195160 936.580078,363.517242 
	C934.747742,372.032104 934.337402,380.686035 938.000000,389.000000 
"/>
<path fill="none" opacity="1.000000" stroke="#c9a55c" stroke-linecap="round" stroke-linejoin="round" stroke-width="5.000000"
	d="
M127.500000,277.750000 
	C128.655319,278.497223 129.730850,279.171936 130.562408,280.459686 
	C134.052704,285.864685 139.365662,288.079285 145.482025,286.906281 
	C157.014771,284.694580 167.307953,287.470520 176.994385,293.509003 
	C183.681427,297.677673 191.511765,299.198914 198.418030,302.663391 
	C206.624146,306.779907 215.603882,305.688202 223.998795,308.004395 
	C228.639557,309.284760 233.702805,309.435730 237.500000,313.000000 
"/>
<path fill="none" opacity="1.000000" stroke="#c9a55c" stroke-linecap="round" stroke-linejoin="round" stroke-width="3.000000"
	d="
M551.000000,196.000000 
	C549.293884,193.969254 547.034546,193.714264 544.512085,193.402161 
	C538.187805,192.619644 531.852051,192.257401 525.519592,191.753815 
	C520.973022,191.392258 516.474487,191.862717 511.993896,191.756165 
	C498.172699,191.427460 484.195343,190.066315 470.531830,193.141479 
	C465.652985,194.239548 460.803253,193.475952 455.982758,194.411133 
	C452.472687,195.092087 449.226410,193.261047 446.000000,192.000000 
"/>
<path fill="none" opacity="1.000000" stroke="#c9a55c" stroke-linecap="round" stroke-linejoin="round" stroke-width="6.000000"
	d="
M966.000000,364.500000 
	C974.994690,365.954651 983.209595,368.959320 988.988342,376.508911 
	C996.995483,386.969696 1001.417786,398.394165 1000.763977,412.012665 
	C1000.435852,418.847443 998.887573,425.502167 999.094177,432.511963 
	C999.321716,440.232666 994.950195,447.407928 990.526672,454.017853 
	C981.050842,468.177429 967.644714,475.744843 950.993103,477.947968 
	C949.718628,478.116608 948.599060,478.724701 947.550903,479.131195 
	C939.624268,482.205109 931.288452,482.697144 922.995850,483.454895 
	C920.768188,483.658478 918.966797,484.360321 917.500000,486.000000 
"/>
<path fill="none" opacity="1.000000" stroke="#c9a55c" stroke-linecap="round" stroke-linejoin="round" stroke-width="7.000000"
	d="
M656.500000,219.000000 
	C660.668945,223.984055 666.580688,225.152832 672.490417,226.540695 
	C684.688904,229.405502 696.751465,232.902695 709.021179,235.395798 
	C723.617493,238.361649 737.585632,243.904449 752.485840,245.622879 
	C755.085815,245.922714 757.439758,247.990997 760.010132,248.973465 
	C773.112122,253.981384 786.145569,259.190155 800.498413,259.560364 
	C805.886780,259.699341 810.828003,262.192566 816.007874,263.467896 
	C821.108032,264.723602 826.233948,266.089844 831.535339,264.093903 
	C832.106323,263.878937 832.955627,263.496033 834.033081,263.914917 
	C843.475891,267.585815 853.107300,264.852448 862.471008,263.753052 
	C872.628113,262.560455 882.757568,260.013550 891.500000,254.000000 
"/>
<path fill="none" opacity="1.000000" stroke="#c9a55c" stroke-linecap="round" stroke-linejoin="round" stroke-width="8.000000"
	d="
M862.000000,453.500000 
	C860.315125,458.466339 861.823914,462.674957 864.423889,467.045288 
	C872.200439,480.117371 882.835632,490.096222 896.555847,496.378082 
	C905.993164,500.699005 915.983276,503.526611 926.481079,504.673065 
	C931.796326,505.253571 936.569580,505.784637 941.593872,503.181122 
	C943.696045,502.091797 946.850769,502.802551 949.496765,503.036377 
	C958.028809,503.790405 965.920044,501.726776 974.097778,499.334137 
	C981.015991,497.310059 987.911194,495.542297 994.533020,492.573639 
	C1000.674255,489.820435 1006.452515,486.317444 1012.561768,483.640991 
	C1027.261475,477.200989 1034.358887,464.270569 1042.098511,451.559998 
	C1046.812988,443.817566 1049.220459,435.257050 1052.447998,426.979706 
	C1053.740845,423.664276 1053.637085,420.030121 1053.470825,416.501373 
	C1053.304565,412.972992 1053.393921,409.521118 1053.732788,405.974457 
	C1054.023315,402.931091 1052.000000,399.666656 1051.000000,396.500000 
"/>
<path fill="none" opacity="1.000000" stroke="#c9a55c" stroke-linecap="round" stroke-linejoin="round" stroke-width="9.000000"
	d="
M962.250000,140.000000 
	C970.381348,143.401413 978.962830,143.021133 987.499939,142.987076 
	C988.183533,142.984360 988.819580,143.097855 989.528625,142.536102 
	C994.458557,138.630112 1000.529236,140.672485 1006.013245,139.565613 
	C1007.641296,139.237045 1009.343018,139.368362 1011.042542,140.431992 
	C1015.588501,143.276993 1020.708435,143.526611 1025.998901,143.590790 
	C1038.998901,143.748428 1051.968140,142.955612 1065.016968,143.702560 
	C1076.087280,144.336243 1087.420288,145.270508 1098.505493,142.522293 
	C1107.899658,140.193329 1117.520264,142.128052 1127.000000,141.250000 
"/>
<path fill="none" opacity="1.000000" stroke="#c9a55c" stroke-linecap="round" stroke-linejoin="round" stroke-width="6.000000"
	d="
M128.000000,214.500000 
	C128.990387,221.348236 134.911835,224.094452 139.590927,227.370117 
	C152.877502,236.671692 166.232239,245.888123 179.942261,254.590958 
	C190.602798,261.358032 201.085556,268.462097 210.565643,276.926483 
	C212.443588,278.603180 215.143311,280.272461 217.504196,280.331177 
	C225.986786,280.542053 233.284988,284.545807 240.945374,287.160065 
	C249.478714,290.072235 257.539612,294.096039 267.017365,293.179535 
	C269.233276,292.965240 271.703217,294.923187 273.993561,296.013489 
	C283.174469,300.384155 292.887634,302.139435 302.997803,302.553619 
	C317.299805,303.139465 331.278839,301.370361 344.983215,297.441437 
	C349.224518,296.225494 353.522125,295.142914 357.532135,293.061890 
	C363.800415,289.808868 371.037476,289.421539 377.546936,286.608582 
	C384.000854,283.819611 391.368683,282.011078 396.281128,277.273071 
	C404.092438,269.739227 414.312561,267.078156 423.016052,261.525146 
	C427.067657,258.940155 431.447906,256.751465 431.500000,251.000000 
"/>
<path fill="none" opacity="1.000000" stroke="#c9a55c" stroke-linecap="round" stroke-linejoin="round" stroke-width="6.000000"
	d="
M1027.000000,285.500000 
	C1027.329468,282.988922 1027.359863,280.514282 1025.493774,278.505768 
	C1013.420532,265.511261 998.787598,257.683167 981.014160,255.390320 
	C969.326721,253.882553 957.901794,254.290070 946.502136,257.009003 
	C944.147034,257.570740 941.667969,257.919556 940.000000,260.000000 
"/>
<path fill="none" opacity="1.000000" stroke="#c9a55c" stroke-linecap="round" stroke-linejoin="round" stroke-width="6.000000"
	d="
M677.000000,185.500000 
	C675.637817,184.072144 673.954590,183.548462 672.000610,183.482712 
	C654.158813,182.882263 636.331482,183.334091 618.497925,183.939026 
	C612.177551,184.153442 605.831238,183.475449 599.500488,183.545074 
	C590.143433,183.647964 580.878357,182.175186 571.497498,182.390121 
	C563.176147,182.580780 554.833313,181.833328 546.500000,181.500000 
"/>
<path fill="none" opacity="1.000000" stroke="#c9a55c" stroke-linecap="round" stroke-linejoin="round" stroke-width="6.000000"
	d="
M964.000000,411.500000 
	C966.220764,416.509491 965.093689,421.394867 962.952576,425.977844 
	C954.612244,443.830383 936.765869,453.069550 916.487305,450.604584 
	C911.819763,450.037231 907.416687,449.039520 902.960876,447.623108 
	C899.503662,446.524170 895.755676,445.854431 892.000000,446.500000 
"/>
<path fill="none" opacity="1.000000" stroke="#c9a55c" stroke-linecap="round" stroke-linejoin="round" stroke-width="7.000000"
	d="
M863.500000,286.500000 
	C859.744934,284.040344 855.404358,284.537476 851.522644,285.144806 
	C840.179993,286.919586 828.828735,285.767242 817.498962,285.843933 
	C812.635132,285.876862 807.997498,287.315918 802.968262,286.824585 
	C799.219666,286.458405 795.636658,286.536377 791.970581,285.073700 
	C776.443298,278.878540 760.912537,272.701263 745.034668,267.396301 
	C735.536438,264.222870 726.311523,260.230408 716.498291,258.007629 
	C715.511169,257.784027 714.447449,257.375916 713.508240,257.545593 
	C705.335083,259.022095 699.081604,253.812271 691.996521,251.510712 
	C680.796753,247.872574 669.800415,242.395447 657.998474,242.342590 
	C647.994995,242.297791 639.331665,238.340134 629.989746,236.553528 
	C628.060303,236.184540 625.662598,235.821274 624.058899,236.618530 
	C617.418518,239.919693 610.958313,236.759079 604.508606,236.360489 
	C590.809753,235.513947 577.231567,234.830765 563.988831,239.468094 
	C563.241943,239.729660 562.479065,239.805984 561.476685,239.648743 
	C554.221619,238.510727 547.735352,241.682526 541.620300,244.740601 
	C538.531860,246.285110 537.022522,250.523666 534.110474,253.123734 
	C530.441406,256.399689 526.595642,259.525574 523.420044,263.435028 
	C517.375671,270.876221 515.488892,279.230225 516.500000,288.500000 
"/>
<path fill="none" opacity="1.000000" stroke="#c9a55c" stroke-linecap="round" stroke-linejoin="round" stroke-width="4.000000"
	d="
M1126.000000,668.500000 
	C1125.833252,670.666687 1125.525757,672.833069 1125.521851,675.000061 
	C1125.484985,695.333313 1125.582153,715.667175 1125.454102,735.999695 
	C1125.411011,742.834839 1124.833252,749.666687 1124.499878,756.500000 
"/>
<path fill="none" opacity="1.000000" stroke="#c9a55c" stroke-linecap="round" stroke-linejoin="round" stroke-width="7.000000"
	d="
M895.500000,284.500000 
	C907.587952,276.175873 920.060486,268.646820 934.468140,264.878143 
	C935.428467,264.626953 936.456238,263.678467 937.485596,264.040863 
	C944.789551,266.612183 952.168701,264.290985 959.501282,264.433044 
	C976.009827,264.752930 991.926819,267.515808 1007.012329,274.473236 
	C1010.248230,275.965607 1013.119934,277.954712 1016.021301,279.969299 
	C1019.275330,282.228699 1021.577026,286.206146 1026.515503,285.633362 
	C1027.406860,285.529968 1028.507080,287.158264 1029.498657,288.001495 
	C1033.560791,291.455963 1034.968628,297.258270 1040.395996,299.728394 
	C1041.834229,300.382935 1042.000000,303.833313 1042.750000,306.000000 
"/>
<path fill="none" opacity="1.000000" stroke="#c9a55c" stroke-linecap="round" stroke-linejoin="round" stroke-width="6.000000"
	d="
M870.500000,375.500000 
	C865.133057,374.635406 863.097839,376.638794 860.057617,383.027405 
	C857.294434,388.834045 856.200500,395.433655 851.097900,400.106873 
	C850.086487,401.033142 849.912537,403.373444 850.066895,404.993622 
	C851.265625,417.577728 852.597900,430.125488 857.436523,442.025818 
	C859.558594,447.244904 861.509216,451.853027 866.852722,455.232849 
	C874.082275,459.805634 879.310486,467.066101 886.446228,472.076599 
	C895.129456,478.173706 903.742798,484.171417 914.497681,486.013611 
	C916.451599,486.348267 917.460327,487.840149 918.250000,489.500000 
"/>
<path fill="none" opacity="1.000000" stroke="#c9a55c" stroke-linecap="round" stroke-linejoin="round" stroke-width="5.000000"
	d="
M887.500000,391.500000 
	C889.961792,396.076263 892.032227,400.933289 896.009888,404.488922 
	C908.490967,415.645508 922.900818,417.372437 938.497742,412.991943 
	C945.637390,410.986725 952.059998,407.723267 956.996399,401.996887 
	C959.126282,399.526215 962.170044,399.564575 965.000000,399.000000 
"/>
<path fill="none" opacity="1.000000" stroke="#c9a55c" stroke-linecap="round" stroke-linejoin="round" stroke-width="7.000000"
	d="
M858.500000,559.500000 
	C868.447205,552.947266 878.324829,558.089600 887.963196,560.170410 
	C898.987732,562.550476 909.960754,561.848999 921.000122,561.766541 
	C929.506287,561.703003 938.084778,559.367737 946.500000,562.500000 
"/>
<path fill="none" opacity="1.000000" stroke="#c9a55c" stroke-linecap="round" stroke-linejoin="round" stroke-width="3.000000"
	d="
M591.000000,262.500000 
	C592.554749,264.837158 591.797668,267.478546 592.017212,269.998505 
	C592.539124,275.990814 594.086365,281.477966 596.743713,287.120697 
	C602.639771,299.640839 603.250610,313.378906 601.833069,326.982605 
	C601.274170,332.346375 599.997559,337.910309 596.516235,342.512268 
	C595.079712,344.411255 594.158569,346.273010 594.859131,349.035736 
	C595.608948,351.992615 593.785156,354.846161 592.415833,357.455841 
	C591.718140,358.785553 590.251770,359.709229 590.500000,361.500000 
"/>
<path fill="none" opacity="1.000000" stroke="#c9a55c" stroke-linecap="round" stroke-linejoin="round" stroke-width="6.000000"
	d="
M1041.500000,183.000000 
	C1037.257080,179.062012 1032.274902,177.699112 1026.497070,177.926956 
	C1017.273682,178.290634 1007.986511,177.479477 998.979187,180.436584 
	C997.080505,181.059921 995.623962,181.650452 994.437988,183.459351 
	C990.518372,189.438141 984.943115,193.748459 978.436218,196.339874 
	C974.583313,197.874329 969.989746,197.295441 966.005859,199.013626 
	C965.463074,199.247742 965.000000,199.666656 964.500000,200.000000 
"/>
<path fill="none" opacity="1.000000" stroke="#c9a55c" stroke-linecap="round" stroke-linejoin="round" stroke-width="6.000000"
	d="
M544.000000,200.500000 
	C542.694702,202.182922 541.099243,203.350281 539.011230,204.034302 
	C531.649048,206.446167 524.491760,210.134415 516.956299,211.186981 
	C509.124512,212.280930 503.156952,215.155182 497.298035,220.268600 
	C494.095184,223.063919 488.828949,223.487457 484.500916,225.002640 
	C475.703857,228.082306 469.005890,234.860001 460.520660,238.547546 
	C451.600433,242.424118 443.088776,247.266907 433.508453,249.535721 
	C432.333099,249.814041 431.442657,250.535614 429.980347,250.060532 
	C420.004974,246.819626 409.227661,246.806168 399.482971,242.538879 
	C398.442780,242.083405 397.079865,241.804306 396.014252,242.059540 
	C389.690704,243.574219 383.306061,242.645401 377.005188,242.377747 
	C367.810547,241.987167 359.340729,243.698044 351.500000,248.500000 
"/>
<path fill="none" opacity="1.000000" stroke="#c9a55c" stroke-linecap="round" stroke-linejoin="round" stroke-width="6.000000"
	d="
M1082.500000,602.500000 
	C1078.276733,602.302734 1074.757202,603.995667 1071.492310,606.489929 
	C1067.072632,609.866455 1063.246338,614.131714 1057.504028,615.516541 
	C1046.712402,618.118896 1035.981201,618.905823 1024.974487,616.360535 
	C1017.518738,614.636475 1010.542053,612.270508 1004.500000,607.500000 
"/>
<path fill="none" opacity="1.000000" stroke="#c9a55c" stroke-linecap="round" stroke-linejoin="round" stroke-width="10.000000"
	d="
M1067.000000,224.000000 
	C1070.931763,243.807648 1072.724731,263.823364 1072.436279,283.999084 
	C1072.339966,290.735657 1072.453125,297.446899 1068.177368,303.622772 
	C1065.289185,307.794312 1065.594727,313.491699 1064.564697,318.513275 
	C1062.646362,327.866150 1058.281860,336.709625 1058.544800,346.498810 
	C1058.626709,349.549133 1057.631104,352.082642 1056.000000,354.500000 
"/>
<path fill="none" opacity="1.000000" stroke="#c9a55c" stroke-linecap="round" stroke-linejoin="round" stroke-width="4.000000"
	d="
M913.500000,305.500000 
	C913.757263,309.053741 912.039429,311.789642 910.026245,314.519379 
	C903.502014,323.366364 899.001038,333.100250 896.954834,343.991516 
	C895.101746,353.855072 905.613831,370.887756 915.512207,373.452911 
	C916.252625,373.644775 917.166687,373.166656 918.000000,373.000000 
"/>
<path fill="none" opacity="1.000000" stroke="#c9a55c" stroke-linecap="round" stroke-linejoin="round" stroke-width="4.000000"
	d="
M1085.500000,62.500000 
	C1085.524902,66.444954 1085.587158,70.076286 1087.273071,74.095222 
	C1093.057739,87.885139 1079.895874,107.517258 1064.998169,107.932327 
	C1059.171143,108.094681 1054.364014,105.260429 1050.530273,100.972939 
	C1048.734253,98.964401 1048.276489,96.843452 1050.432861,94.439781 
	C1051.947266,92.751709 1052.833252,90.499985 1054.000000,88.499985 
"/>
<path fill="none" opacity="1.000000" stroke="#c9a55c" stroke-linecap="round" stroke-linejoin="round" stroke-width="6.000000"
	d="
M480.000000,345.500000 
	C482.156311,350.790070 484.766388,355.904053 483.584534,362.016357 
	C483.008301,364.996429 484.782654,367.665863 486.531525,369.976135 
	C491.558502,376.616791 490.126953,382.479156 482.513733,386.525818 
	C477.332550,389.279755 471.970520,389.947418 466.519592,387.946655 
	C460.421967,385.708557 453.031647,386.525269 448.496674,380.502502 
	C448.356293,380.316040 448.148743,380.180969 448.002747,379.997803 
	C446.497925,378.109802 444.146759,363.206757 444.999969,361.000000 
	C447.151794,355.434723 451.945343,353.947083 459.500000,356.500000 
"/>
<path fill="none" opacity="1.000000" stroke="#c9a55c" stroke-linecap="round" stroke-linejoin="round" stroke-width="5.000000"
	d="
M769.000000,432.500000 
	C766.760986,433.880493 766.131714,436.169647 766.038574,438.501526 
	C765.606384,449.327118 764.506897,460.185730 761.269348,470.427094 
	C758.182556,480.191528 754.927124,490.262756 747.465027,497.966125 
	C745.469849,500.025818 744.844910,502.313660 745.000000,505.000000 
"/>
<path fill="none" opacity="1.000000" stroke="#c9a55c" stroke-linecap="round" stroke-linejoin="round" stroke-width="5.000000"
	d="
M540.000000,244.500000 
	C535.447571,241.984741 530.888672,244.053360 527.090210,245.707214 
	C519.033081,249.215256 510.562012,251.876404 502.995697,256.492920 
	C502.361664,256.879761 501.278656,257.001709 501.056549,257.524048 
	C494.894806,272.015717 481.004822,280.457825 472.949219,293.468567 
	C471.471436,295.855377 469.348785,297.846619 467.496918,299.997345 
	C463.413666,304.739380 458.072784,305.344177 452.523987,303.907349 
	C448.700958,302.917419 446.281586,300.041168 445.484741,296.003021 
	C445.250641,294.816772 444.833344,293.666656 444.500000,292.500000 
"/>
<path fill="none" opacity="1.000000" stroke="#c9a55c" stroke-linecap="round" stroke-linejoin="round" stroke-width="3.000000"
	d="
M1077.500000,662.500000 
	C1081.112793,679.355408 1068.430786,696.920593 1055.007935,702.518982 
	C1052.120605,703.723145 1049.401245,705.343689 1046.485229,706.461487 
	C1041.173828,708.497437 1036.978760,706.663757 1034.496826,701.501526 
	C1033.850952,700.158264 1033.166626,698.833313 1032.500000,697.500000 
"/>
<path fill="none" opacity="1.000000" stroke="#c9a55c" stroke-linecap="round" stroke-linejoin="round" stroke-width="5.000000"
	d="
M896.000000,346.000000 
	C894.151245,346.439178 892.729553,346.887970 892.934753,349.505127 
	C893.871887,361.456421 897.195618,372.281708 905.965820,381.034241 
	C912.943359,387.997681 921.591858,390.779724 931.001404,391.988983 
	C931.657288,392.073273 932.584595,392.285614 932.960388,391.954987 
	C936.113464,389.180908 939.923706,390.059204 943.500122,390.049774 
	C948.712769,390.036041 952.826111,387.754974 955.919434,383.934784 
	C958.250793,381.055481 961.259155,380.818512 963.950256,381.659149 
	C967.435913,382.748047 967.852234,386.359161 967.425964,389.489929 
	C966.701050,394.813599 965.363037,399.990295 965.840454,405.513794 
	C966.087891,408.376923 964.782837,411.399261 961.003357,412.020447 
	C957.411560,412.610779 955.010864,415.116669 952.482117,417.480896 
	C937.906494,431.108734 911.625671,430.276367 899.000000,415.000000 
"/>
<path fill="none" opacity="1.000000" stroke="#c9a55c" stroke-linecap="round" stroke-linejoin="round" stroke-width="3.000000"
	d="
M1050.500000,265.500000 
	C1052.522095,270.430817 1055.200195,275.158600 1055.963013,280.505280 
	C1057.285767,289.776184 1055.557861,298.543335 1051.585083,307.039795 
	C1049.716064,311.037201 1048.558594,315.374084 1048.958740,320.003571 
	C1049.506104,326.339203 1053.277466,329.505341 1059.000000,331.000000 
"/>
<path fill="none" opacity="1.000000" stroke="#c9a55c" stroke-linecap="round" stroke-linejoin="round" stroke-width="6.000000"
	d="
M889.500000,318.000000 
	C886.447632,317.971405 884.065369,319.109558 881.402893,320.851593 
	C871.436157,327.372986 865.825073,337.237122 860.015869,347.009430 
	C854.106323,356.950684 850.328613,368.052094 843.500000,377.500000 
"/>
<path fill="none" opacity="1.000000" stroke="#c9a55c" stroke-linecap="round" stroke-linejoin="round" stroke-width="5.000000"
	d="
M1066.500000,441.500000 
	C1068.324951,444.099518 1068.605835,446.779572 1068.139648,450.020111 
	C1067.431274,454.942993 1068.073853,459.990723 1067.591675,465.008820 
	C1066.983765,471.333160 1064.526245,476.128784 1059.024902,479.540222 
	C1049.211182,485.625885 1042.660278,494.695129 1037.005249,504.503052 
	C1036.583252,505.235168 1036.419189,505.931274 1035.558472,506.577850 
	C1028.159546,512.136719 1023.035583,519.764465 1017.524780,527.018799 
	C1015.498474,529.686157 1013.221375,531.706177 1010.041321,533.094727 
	C1004.402893,535.556763 1000.079590,540.001343 995.509033,544.010254 
	C994.191101,545.166199 993.198547,546.681702 990.950806,545.602478 
	C990.268188,545.274719 988.951416,546.064819 988.007385,546.515442 
	C975.542053,552.465210 961.917725,555.426636 949.487000,561.473267 
	C947.469910,562.454407 945.904175,563.199036 946.930847,566.025146 
	C947.989502,568.939087 945.563538,571.076721 944.500000,573.500000 
"/>
<path fill="none" opacity="1.000000" stroke="#c9a55c" stroke-linecap="round" stroke-linejoin="round" stroke-width="5.000000"
	d="
M605.500000,193.500000 
	C596.666687,194.833344 587.864075,196.806351 578.987183,197.233536 
	C574.463074,197.451248 569.574890,197.157150 565.031921,196.325531 
	C560.562744,195.507416 556.320007,196.260880 552.592896,197.734879 
	C548.549988,199.333755 545.154236,201.136978 540.954224,198.575012 
	C540.103943,198.056351 538.666687,198.500000 537.500000,198.500000 
"/>
<path fill="none" opacity="1.000000" stroke="#c9a55c" stroke-linecap="round" stroke-linejoin="round" stroke-width="5.000000"
	d="
M549.500000,329.500000 
	C549.450867,332.269623 549.387756,334.964478 550.958557,337.525421 
	C553.480957,341.637970 551.417236,345.556580 549.411316,348.947540 
	C544.621033,357.045105 533.433472,362.079590 521.443970,357.651703 
	C515.724060,355.539246 510.374298,353.261536 506.018555,348.981110 
	C505.207825,348.184448 504.333008,348.668213 503.500000,348.500000 
"/>
<path fill="none" opacity="1.000000" stroke="#c9a55c" stroke-linecap="round" stroke-linejoin="round" stroke-width="6.000000"
	d="
M806.000000,511.000000 
	C810.144592,511.872009 813.751038,513.997986 816.438416,517.054138 
	C828.572998,530.853760 844.317200,539.989685 859.012634,550.482300 
	C861.173096,552.024902 863.312744,553.520630 864.500000,556.000000 
"/>
<path fill="none" opacity="1.000000" stroke="#c9a55c" stroke-linecap="round" stroke-linejoin="round" stroke-width="5.000000"
	d="
M504.999969,167.500000 
	C504.833313,168.500000 504.620331,169.494797 504.507385,170.500839 
	C503.623077,178.377945 502.701538,179.820282 495.492798,180.412170 
	C484.527374,181.312500 473.462219,183.479095 462.541992,181.290527 
	C457.546906,180.289444 454.846130,182.226135 451.423615,184.902328 
	C446.450562,188.790924 441.003143,191.778336 434.535583,193.165924 
	C427.587372,194.656631 422.084198,198.904648 417.935272,204.955612 
	C414.280670,210.285553 410.266052,215.353165 408.000000,221.500000 
"/>
<path fill="none" opacity="1.000000" stroke="#c9a55c" stroke-linecap="round" stroke-linejoin="round" stroke-width="7.000000"
	d="
M1046.500000,637.750000 
	C1044.604492,639.796082 1045.322510,642.700562 1043.645386,645.101562 
	C1038.408691,652.598816 1030.626831,652.403809 1022.998169,652.975159 
	C1020.307190,653.176697 1017.664246,653.425537 1014.976868,653.855225 
	C1005.820068,655.319092 1003.111267,662.505554 1000.000000,669.500000 
"/>
<path fill="none" opacity="1.000000" stroke="#c9a55c" stroke-linecap="round" stroke-linejoin="round" stroke-width="5.000000"
	d="
M1042.000000,193.500000 
	C1038.214844,195.938858 1034.371826,193.550446 1031.058594,192.755630 
	C1015.864075,189.110687 1004.764465,197.076187 1003.440491,210.494125 
	C1003.189697,213.035172 1002.166687,215.500000 1001.500000,218.000000 
"/>
<path fill="none" opacity="1.000000" stroke="#c9a55c" stroke-linecap="round" stroke-linejoin="round" stroke-width="6.000000"
	d="
M67.500000,112.000000 
	C61.554264,112.532791 58.052422,115.829552 58.513844,120.498634 
	C58.580700,121.175163 58.612541,122.075417 59.035450,122.461136 
	C62.018726,125.182068 64.272400,128.866898 68.501999,129.992493 
	C76.408348,132.096603 83.323853,136.670532 91.032646,139.148422 
	C98.107018,141.422363 105.469658,142.590408 113.000092,142.581619 
	C115.832840,142.578308 118.649170,143.713181 121.504311,143.947479 
	C125.300751,144.258987 129.214600,144.501083 132.000000,141.000000 
"/>
<path fill="none" opacity="1.000000" stroke="#c9a55c" stroke-linecap="round" stroke-linejoin="round" stroke-width="3.000000"
	d="
M1042.500000,123.500000 
	C1047.484375,125.520477 1051.355713,129.270691 1056.933716,130.749985 
	C1071.186768,134.529938 1083.739136,132.622620 1095.000000,123.000000 
"/>
<path fill="none" opacity="1.000000" stroke="#c9a55c" stroke-linecap="round" stroke-linejoin="round" stroke-width="9.000000"
	d="
M1007.500000,69.500008 
	C1006.833313,70.333344 1005.728149,71.089294 1005.565430,72.011559 
	C1002.940552,86.886894 1000.131958,101.755943 1010.940247,115.048576 
	C1014.136597,118.979591 1014.367920,124.215065 1015.500000,129.000000 
"/>
<path fill="none" opacity="1.000000" stroke="#c9a55c" stroke-linecap="round" stroke-linejoin="round" stroke-width="3.000000"
	d="
M1075.500000,659.500000 
	C1074.024048,655.545959 1070.541748,653.464844 1067.484619,651.019226 
	C1064.892700,648.945679 1061.871460,649.861145 1059.580811,651.144226 
	C1057.160034,652.500183 1057.159058,655.270020 1057.938232,658.017517 
	C1058.719116,660.771179 1059.235229,663.648865 1059.451416,666.503662 
	C1059.914551,672.620972 1055.901978,676.000000 1048.500000,676.000000 
"/>
<path fill="none" opacity="1.000000" stroke="#c9a55c" stroke-linecap="round" stroke-linejoin="round" stroke-width="4.000000"
	d="
M767.500000,350.500000 
	C763.537292,347.082275 758.641785,347.035522 754.033936,347.726501 
	C751.999146,348.031586 750.429443,348.158966 748.468933,347.611145 
	C746.958069,347.188995 744.853455,346.031982 743.557129,347.548828 
	C739.194885,352.653534 732.694214,354.886139 727.996643,359.496613 
	C722.093567,365.290344 720.881531,372.767365 720.531738,380.501434 
	C720.351196,384.493256 720.500000,388.500000 720.500000,392.500000 
"/>
<path fill="none" opacity="1.000000" stroke="#c9a55c" stroke-linecap="round" stroke-linejoin="round" stroke-width="5.000000"
	d="
M672.500000,326.500000 
	C672.548340,329.320892 671.976562,331.803955 669.004517,333.011047 
	C668.803284,333.092773 668.654053,333.322601 668.501831,333.501587 
	C664.980591,337.642639 658.867126,339.094940 656.258301,343.648010 
	C654.169922,347.292786 654.611633,352.259247 653.091919,356.532684 
	C650.864136,362.797424 648.012329,367.985046 640.500000,368.500000 
"/>
<path fill="none" opacity="1.000000" stroke="#c9a55c" stroke-linecap="round" stroke-linejoin="round" stroke-width="4.000000"
	d="
M746.000000,346.500000 
	C746.333374,345.666687 746.548462,344.759003 747.018494,344.011627 
	C751.141052,337.456818 748.693420,331.585022 741.005432,329.480133 
	C737.896240,328.628845 734.970764,328.348083 733.023987,331.514740 
	C730.949585,334.889221 731.869263,338.506348 733.632141,341.420044 
	C735.475159,344.466217 738.733459,346.399841 742.000000,348.000000 
"/>
<path fill="none" opacity="1.000000" stroke="#c9a55c" stroke-linecap="round" stroke-linejoin="round" stroke-width="8.000000"
	d="
M693.500000,287.000000 
	C688.617737,288.307312 685.159119,292.053864 681.112427,294.673706 
	C672.484314,300.259583 663.190552,301.025726 653.504883,300.421539 
	C651.471191,300.294678 649.500000,299.166656 647.500000,298.500000 
"/>
<path fill="none" opacity="1.000000" stroke="#c9a55c" stroke-linecap="round" stroke-linejoin="round" stroke-width="3.000000"
	d="
M706.500000,277.500000 
	C714.523987,284.788940 721.610718,292.873657 727.511658,301.992462 
	C732.115479,309.107025 730.385376,315.839935 726.500000,322.500000 
"/>
<path fill="none" opacity="1.000000" stroke="#c9a55c" stroke-linecap="round" stroke-linejoin="round" stroke-width="6.000000"
	d="
M707.500000,258.500000 
	C708.180725,260.506805 708.910400,262.274841 710.956360,263.569000 
	C717.047791,267.422028 722.274414,272.582703 728.989685,275.523621 
	C729.732788,275.849060 730.300903,276.883789 731.004822,276.943237 
	C744.534363,278.085541 749.730042,289.663544 757.490234,298.009094 
	C759.882080,300.581329 757.862366,304.005188 759.337402,307.078064 
	C762.889832,314.478546 766.389893,321.888184 770.494873,329.002930 
	C770.866760,329.647400 771.197632,330.319824 771.495239,331.002075 
	C774.451355,337.779358 775.215881,338.199493 782.500000,337.000000 
"/>
<path fill="none" opacity="1.000000" stroke="#c9a55c" stroke-linecap="round" stroke-linejoin="round" stroke-width="6.000000"
	d="
M562.500000,240.500000 
	C562.561340,243.989670 560.406128,246.418381 558.513794,249.010056 
	C554.089966,255.068588 550.565308,261.599548 549.034790,269.007202 
	C547.996216,274.033936 547.499817,279.083374 552.000000,283.000000 
"/>
<path fill="none" opacity="1.000000" stroke="#c9a55c" stroke-linecap="round" stroke-linejoin="round" stroke-width="6.000000"
	d="
M994.500000,181.000000 
	C992.410461,178.935196 989.870850,178.425156 986.999512,178.462616 
	C978.834229,178.569138 970.666504,178.530228 962.500061,178.485123 
	C959.236816,178.467102 955.794312,178.057983 953.054810,180.074463 
	C950.600525,181.880981 949.112244,179.288239 946.994751,179.384521 
	C940.175537,179.694565 933.047302,178.289948 926.575562,179.819733 
	C919.211731,181.560410 912.160156,179.990036 904.996521,180.445114 
	C902.461121,180.606186 900.201416,180.957001 898.500000,183.000000 
"/>
<path fill="none" opacity="1.000000" stroke="#c9a55c" stroke-linecap="round" stroke-linejoin="round" stroke-width="6.000000"
	d="
M280.500000,322.500000 
	C274.069489,322.722076 268.327026,321.362701 262.353699,318.283844 
	C255.160965,314.576385 246.640747,314.249329 238.500000,313.500000 
"/>
<path fill="none" opacity="1.000000" stroke="#c9a55c" stroke-linecap="round" stroke-linejoin="round" stroke-width="7.000000"
	d="
M1013.500000,343.500000 
	C1024.888428,347.755646 1033.847900,354.925049 1040.022705,365.486755 
	C1040.858398,366.916138 1041.970825,368.189789 1043.005005,369.496033 
	C1047.392456,375.037628 1050.116333,375.628265 1055.435425,371.418457 
	C1057.923218,369.449493 1060.481323,367.739502 1063.504517,367.592377 
	C1069.295898,367.310577 1072.923096,370.927673 1072.942139,377.000183 
	C1072.964722,384.198853 1070.579590,390.848114 1066.954224,396.972900 
	C1064.214111,401.601990 1059.739502,403.788147 1054.500000,404.500000 
"/>
<path fill="none" opacity="1.000000" stroke="#c9a55c" stroke-linecap="round" stroke-linejoin="round" stroke-width="5.000000"
	d="
M1072.500000,531.500000 
	C1074.845093,532.646179 1075.636108,535.014709 1074.880859,536.953552 
	C1072.915894,541.997986 1073.563232,547.415039 1071.675293,552.564270 
	C1067.517700,563.903503 1061.397461,567.372498 1049.997437,563.507446 
	C1048.849731,563.118286 1047.666626,562.833313 1046.500000,562.499939 
"/>
<path fill="none" opacity="1.000000" stroke="#c9a55c" stroke-linecap="round" stroke-linejoin="round" stroke-width="6.000000"
	d="
M903.000000,260.000000 
	C901.028381,260.731018 899.904663,262.554688 898.059509,263.604553 
	C887.398987,269.670258 878.794067,278.834991 867.510925,284.023773 
	C865.196045,285.088318 864.039978,287.136139 862.918213,289.460510 
	C858.712585,298.174744 852.720093,305.761414 846.967773,313.475952 
	C845.532104,315.401276 843.517944,316.721222 841.000000,317.000000 
"/>
<path fill="none" opacity="1.000000" stroke="#c9a55c" stroke-linecap="round" stroke-linejoin="round" stroke-width="6.000000"
	d="
M957.000000,135.000000 
	C951.179321,131.334808 945.017700,128.584564 937.999817,128.520065 
	C927.957397,128.427750 925.000000,131.443268 925.000000,141.500000 
"/>
<path fill="none" opacity="1.000000" stroke="#c9a55c" stroke-linecap="round" stroke-linejoin="round" stroke-width="5.000000"
	d="
M965.500000,630.999939 
	C961.166687,631.499939 956.622437,631.333740 952.539917,632.626038 
	C940.713806,636.369446 937.246704,642.590149 939.500000,654.500000 
"/>
<path fill="none" opacity="1.000000" stroke="#c9a55c" stroke-linecap="round" stroke-linejoin="round" stroke-width="7.000000"
	d="
M1073.500000,473.500000 
	C1071.994751,480.750580 1070.313232,487.944672 1068.141113,495.043182 
	C1067.506226,497.117798 1066.537231,498.258850 1065.034424,499.540344 
	C1058.962280,504.718262 1053.935669,510.793365 1051.587891,518.526672 
	C1050.224976,523.016174 1051.104858,527.909424 1049.633545,532.542419 
	C1048.844482,535.026917 1053.953613,538.768188 1058.001587,538.966675 
	C1061.327026,539.129761 1064.667969,539.056152 1067.999512,538.977295 
	C1069.769775,538.935364 1071.453735,539.064392 1073.000000,540.000000 
"/>
<path fill="none" opacity="1.000000" stroke="#c9a55c" stroke-linecap="round" stroke-linejoin="round" stroke-width="5.000000"
	d="
M476.500000,301.500000 
	C475.563110,310.827606 475.011688,320.035675 478.883453,329.050049 
	C480.551147,332.932831 483.399811,335.196259 486.500000,337.500000 
"/>
<path fill="none" opacity="1.000000" stroke="#c9a55c" stroke-linecap="round" stroke-linejoin="round" stroke-width="5.000000"
	d="
M825.000000,543.000000 
	C826.257263,549.974060 824.173828,556.993469 825.435059,564.011658 
	C826.574646,570.352844 828.397583,576.137756 834.000000,580.000000 
"/>
<path fill="none" opacity="1.000000" stroke="#c9a55c" stroke-linecap="round" stroke-linejoin="round" stroke-width="4.000000"
	d="
M967.500000,231.000000 
	C964.126587,234.649826 959.168457,234.749207 954.937988,235.733475 
	C950.379150,236.794113 945.950989,238.292206 941.559753,239.687988 
	C937.346558,241.027222 933.755798,240.950653 930.000000,239.000000 
"/>
<path fill="none" opacity="1.000000" stroke="#c9a55c" stroke-linecap="round" stroke-linejoin="round" stroke-width="3.000000"
	d="
M651.500000,243.000000 
	C653.675049,248.787186 659.363892,250.491760 664.088745,252.263351 
	C672.280090,255.334702 679.935364,259.259277 687.500000,263.500000 
"/>
<path fill="none" opacity="1.000000" stroke="#c9a55c" stroke-linecap="round" stroke-linejoin="round" stroke-width="6.000000"
	d="
M966.500000,203.000000 
	C971.650330,208.145798 978.739441,209.505417 984.964111,212.572891 
	C991.449402,215.768799 998.898499,216.413040 1005.011963,220.482056 
	C1005.589233,220.866364 1006.781433,220.842026 1006.933594,221.273438 
	C1009.713440,229.158646 1017.770142,230.369202 1023.494263,234.507904 
	C1023.871460,234.780609 1024.166626,235.166672 1024.500000,235.500015 
"/>
<path fill="none" opacity="1.000000" stroke="#c9a55c" stroke-linecap="round" stroke-linejoin="round" stroke-width="11.000000"
	d="
M587.000000,388.000000 
	C586.736511,384.505615 584.446167,387.045044 583.511902,387.130310 
	C577.416931,387.686157 572.534424,392.915863 572.000000,399.000000 
	C571.720459,402.182373 577.340637,408.689941 581.500000,410.000000 
	C585.245911,411.179871 588.262634,409.240509 588.500000,405.500000 
"/>
<path fill="none" opacity="1.000000" stroke="#c9a55c" stroke-linecap="round" stroke-linejoin="round" stroke-width="3.000000"
	d="
M931.500000,660.500000 
	C931.024170,666.790161 931.818665,673.180542 933.826355,678.885132 
	C935.277649,683.008606 938.752380,687.435852 944.500183,687.474121 
	C948.629333,687.501648 950.155273,689.677124 950.000000,693.500000 
"/>
<path fill="none" opacity="1.000000" stroke="#c9a55c" stroke-linecap="round" stroke-linejoin="round" stroke-width="5.000000"
	d="
M786.500000,340.000000 
	C782.872986,339.313507 782.597900,336.679413 783.564209,334.023376 
	C785.701965,328.147766 785.861084,328.167847 780.975769,325.545135 
	C780.441223,325.258148 780.198669,325.117645 779.962280,324.514771 
	C777.260742,317.622345 769.785095,314.479034 766.832336,307.571655 
	C765.446960,304.330811 763.295410,300.762695 759.000000,300.000000 
"/>
<path fill="none" opacity="1.000000" stroke="#c9a55c" stroke-linecap="round" stroke-linejoin="round" stroke-width="5.000000"
	d="
M993.000000,579.000000 
	C987.548035,587.622559 982.894409,596.446655 987.565186,606.971069 
	C988.395264,608.841370 987.549316,610.333313 987.500000,612.000000 
"/>
<path fill="none" opacity="1.000000" stroke="#c9a55c" stroke-linecap="round" stroke-linejoin="round" stroke-width="4.000000"
	d="
M836.999939,317.999969 
	C835.333313,321.166656 833.715942,324.360474 831.989563,327.494232 
	C828.560059,333.719330 823.062378,335.656036 817.454468,333.625793 
	C813.508118,332.197174 813.590393,328.678162 812.000000,326.000000 
"/>
<path fill="none" opacity="1.000000" stroke="#c9a55c" stroke-linecap="round" stroke-linejoin="round" stroke-width="5.000000"
	d="
M401.500000,269.000000 
	C395.700867,265.308319 388.720551,265.379028 382.488342,263.030914 
	C375.873535,260.538666 369.166656,263.210724 362.500000,263.000000 
"/>
<path fill="none" opacity="1.000000" stroke="#c9a55c" stroke-linecap="round" stroke-linejoin="round" stroke-width="4.000000"
	d="
M84.500000,194.500000 
	C86.115685,192.117050 87.319458,189.870193 90.942245,189.191650 
	C93.406624,188.730072 95.396004,185.304871 96.414078,182.469147 
	C97.063255,180.660950 96.367271,179.079010 94.021133,178.424286 
	C92.024757,177.867172 90.104034,176.720917 88.006088,177.040009 
	C79.960022,178.263824 72.003151,176.424179 64.000198,176.517059 
	C56.499275,176.604111 49.000000,176.833344 41.500000,177.000015 
"/>
<path fill="none" opacity="1.000000" stroke="#c9a55c" stroke-linecap="round" stroke-linejoin="round" stroke-width="5.000000"
	d="
M942.500000,576.500000 
	C939.679443,581.167542 936.135742,585.597839 935.107971,591.020447 
	C933.886597,597.464966 935.026123,603.769836 938.500000,609.500000 
"/>
<path fill="none" opacity="1.000000" stroke="#c9a55c" stroke-linecap="round" stroke-linejoin="round" stroke-width="5.000000"
	d="
M783.000000,217.500000 
	C780.515869,225.287186 775.932190,231.405121 767.964355,233.885574 
	C762.416077,235.612808 756.378418,237.193619 751.957642,231.030365 
	C751.612793,230.549545 750.666687,230.500000 750.000000,230.250000 
"/>
<path fill="none" opacity="1.000000" stroke="#c9a55c" stroke-linecap="round" stroke-linejoin="round" stroke-width="5.000000"
	d="
M132.000000,263.000000 
	C129.403534,261.822357 128.343109,259.685791 127.417168,257.028870 
	C123.289558,245.184967 115.310303,241.438278 101.500000,244.500000 
"/>
<path fill="none" opacity="1.000000" stroke="#c9a55c" stroke-linecap="round" stroke-linejoin="round" stroke-width="5.000000"
	d="
M799.000000,396.500000 
	C796.505127,398.805725 796.672791,402.068085 796.024719,405.005463 
	C794.315613,412.752777 792.075745,420.429718 792.500000,428.500000 
"/>
<path fill="none" opacity="1.000000" stroke="#c9a55c" stroke-linecap="round" stroke-linejoin="round" stroke-width="6.000000"
	d="
M755.500000,399.500000 
	C752.103455,405.622498 742.342529,409.427277 736.021362,406.945557 
	C734.871460,406.494080 733.744568,405.502747 733.055237,404.463379 
	C731.775330,402.533478 730.215393,401.147430 727.964050,400.473480 
	C728.306702,398.828400 728.653320,397.164185 729.000000,395.500000 
"/>
<path fill="none" opacity="1.000000" stroke="#c9a55c" stroke-linecap="round" stroke-linejoin="round" stroke-width="3.000000"
	d="
M973.500000,531.000000 
	C973.545410,534.015137 972.688843,536.240295 969.526184,537.562622 
	C961.767578,540.806702 953.909302,543.569885 945.500000,544.500000 
"/>
<path fill="none" opacity="1.000000" stroke="#c9a55c" stroke-linecap="round" stroke-linejoin="round" stroke-width="6.000000"
	d="
M908.500000,256.500000 
	C913.473999,254.633240 917.616943,251.357010 921.981445,248.471970 
	C923.864380,247.227325 925.401367,245.597717 924.871826,242.322510 
	C914.264160,246.111954 904.812927,253.334656 892.586060,252.587585 
	C888.387024,247.485443 878.707214,245.590103 880.500000,235.500000 
"/>
<path fill="none" opacity="1.000000" stroke="#c9a55c" stroke-linecap="round" stroke-linejoin="round" stroke-width="5.000000"
	d="
M173.500000,264.500000 
	C169.000000,262.666656 164.643173,260.141998 159.964172,259.173035 
	C153.966034,257.930908 148.209534,259.397430 144.000000,264.500000 
"/>
<path fill="none" opacity="1.000000" stroke="#c9a55c" stroke-linecap="round" stroke-linejoin="round" stroke-width="7.000000"
	d="
M1048.500000,182.500000 
	C1042.302612,183.504089 1039.821411,189.248520 1043.569092,194.954666 
	C1047.424927,200.825516 1052.056030,206.186401 1055.924683,212.049698 
	C1058.675171,216.218369 1061.103394,220.488800 1066.000000,222.500000 
"/>
<path fill="none" opacity="1.000000" stroke="#c9a55c" stroke-linecap="round" stroke-linejoin="round" stroke-width="5.000000"
	d="
M991.500000,137.000000 
	C986.336609,133.759506 980.155151,132.878525 974.941223,129.593231 
	C970.352539,126.701859 966.716309,122.425514 961.500000,120.500000 
"/>
<path fill="none" opacity="1.000000" stroke="#c9a55c" stroke-linecap="round" stroke-linejoin="round" stroke-width="4.000000"
	d="
M849.000000,584.500000 
	C843.559326,591.951965 836.457458,596.016113 826.997742,595.545044 
	C824.838440,595.437500 822.872681,595.009155 821.000000,594.000000 
"/>
<path fill="none" opacity="1.000000" stroke="#c9a55c" stroke-linecap="round" stroke-linejoin="round" stroke-width="4.000000"
	d="
M116.000000,234.000000 
	C109.991920,224.773071 107.261467,226.796799 96.521576,231.548767 
	C95.388390,232.050171 94.554428,233.227859 93.554657,234.115753 
	C93.696571,235.831467 93.848282,237.665741 94.000000,239.500000 
"/>
<path fill="none" opacity="1.000000" stroke="#c9a55c" stroke-linecap="round" stroke-linejoin="round" stroke-width="3.000000"
	d="
M620.500000,241.000000 
	C626.917542,246.158920 633.051941,251.505920 637.091858,258.950134 
	C638.762146,262.027863 639.604492,265.233429 640.500000,268.500000 
"/>
<path fill="none" opacity="1.000000" stroke="#c9a55c" stroke-linecap="round" stroke-linejoin="round" stroke-width="3.000000"
	d="
M793.000000,568.000000 
	C787.945251,574.938904 781.138672,576.726746 772.987000,575.063660 
	C770.906921,574.639282 768.666687,575.000000 766.500000,575.000000 
"/>
<path fill="none" opacity="1.000000" stroke="#c9a55c" stroke-linecap="round" stroke-linejoin="round" stroke-width="3.000000"
	d="
M709.000000,391.500000 
	C713.594788,398.249573 710.712097,406.417114 703.000000,408.499969 
	C696.754761,410.186676 692.768372,406.925140 692.000000,399.500000 
"/>
<path fill="none" opacity="1.000000" stroke="#c9a55c" stroke-linecap="round" stroke-linejoin="round" stroke-width="7.000000"
	d="
M780.000000,474.000000 
	C773.952393,473.571411 768.139282,473.609863 765.997375,480.999237 
	C765.850769,481.505066 765.451965,482.037384 765.531433,482.494568 
	C767.409302,493.292389 758.522888,497.955414 752.943237,504.451263 
	C751.921509,505.640747 750.186768,507.052582 748.532715,506.415070 
	C744.512817,504.865570 740.805237,506.540894 737.006165,507.046417 
	C732.888428,507.594330 729.322998,504.929657 724.956116,505.772614 
	C721.221130,506.493500 720.075745,502.730774 719.500000,499.500000 
"/>
<path fill="none" opacity="1.000000" stroke="#c9a55c" stroke-linecap="round" stroke-linejoin="round" stroke-width="4.000000"
	d="
M1033.500000,211.500000 
	C1030.666626,211.166656 1027.835571,210.812744 1024.999512,210.503952 
	C1017.308716,209.666580 1011.745972,212.871994 1008.000000,219.500000 
"/>
<path fill="none" opacity="1.000000" stroke="#c9a55c" stroke-linecap="round" stroke-linejoin="round" stroke-width="5.000000"
	d="
M1038.500000,62.000000 
	C1038.000000,62.000000 1037.499756,61.990986 1037.000000,62.001347 
	C1028.639648,62.174717 1021.070251,64.266960 1014.961548,70.462090 
	C1012.364868,73.095474 1010.288391,76.617226 1006.000000,77.000000 
"/>
<path fill="none" opacity="1.000000" stroke="#c9a55c" stroke-linecap="round" stroke-linejoin="round" stroke-width="3.000000"
	d="
M402.000000,189.500000 
	C402.161926,192.817215 399.335205,194.175385 397.438416,195.933578 
	C393.920319,199.194656 391.503662,203.054581 390.052917,207.517212 
	C389.412842,209.486176 388.845367,211.266815 387.019409,212.528091 
	C383.917053,214.671021 383.946259,218.327972 383.000000,221.500000 
"/>
<path fill="none" opacity="1.000000" stroke="#c9a55c" stroke-linecap="round" stroke-linejoin="round" stroke-width="7.000000"
	d="
M622.500000,322.500000 
	C625.667297,323.423401 627.947144,325.635132 629.969482,328.025818 
	C634.607056,333.508057 640.381226,335.880310 647.500000,335.000000 
"/>
<path fill="none" opacity="1.000000" stroke="#c9a55c" stroke-linecap="round" stroke-linejoin="round" stroke-width="4.000000"
	d="
M946.000000,297.500000 
	C942.259155,301.297394 936.752930,301.685242 932.496582,304.494843 
	C928.519409,307.120026 924.453186,309.627960 921.500000,313.500000 
"/>
<path fill="none" opacity="1.000000" stroke="#c9a55c" stroke-linecap="round" stroke-linejoin="round" stroke-width="5.000000"
	d="
M812.000000,290.500000 
	C817.726685,293.594513 822.240417,298.378113 827.866028,301.725189 
	C830.877075,303.516693 832.127258,307.919556 835.000000,310.500000 
"/>
<path fill="none" opacity="1.000000" stroke="#c9a55c" stroke-linecap="round" stroke-linejoin="round" stroke-width="6.000000"
	d="
M97.000000,183.500000 
	C102.147934,186.611435 108.978859,187.198380 111.996162,193.564209 
	C113.173355,193.374649 114.354515,193.261719 115.497063,192.987762 
	C122.210854,191.377853 124.926094,185.957458 122.565636,179.476089 
	C121.874634,177.578735 120.752289,176.521988 119.000801,176.549988 
	C111.333649,176.672485 103.493866,175.524994 96.250000,179.250000 
"/>
<path fill="none" opacity="1.000000" stroke="#c9a55c" stroke-linecap="round" stroke-linejoin="round" stroke-width="3.000000"
	d="
M929.000000,581.500000 
	C925.903259,589.547302 923.667969,597.766907 924.000000,606.500000 
"/>
<path fill="none" opacity="1.000000" stroke="#c9a55c" stroke-linecap="round" stroke-linejoin="round" stroke-width="8.000000"
	d="
M600.500000,366.500000 
	C600.990662,376.535370 596.221375,383.020264 587.000000,386.500000 
"/>
<path fill="none" opacity="1.000000" stroke="#c9a55c" stroke-linecap="round" stroke-linejoin="round" stroke-width="5.000000"
	d="
M220.500000,214.500000 
	C222.154846,211.372040 223.445175,208.277130 223.116287,204.489899 
	C222.851791,201.444153 221.041672,199.538666 218.914810,198.721802 
	C217.394760,198.137985 215.072845,199.118088 213.413300,200.920166 
	C210.892593,203.657303 209.324310,206.963348 207.660446,210.085495 
	C205.803513,213.569931 203.389603,216.485870 201.000000,219.500000 
"/>
<path fill="none" opacity="1.000000" stroke="#c9a55c" stroke-linecap="round" stroke-linejoin="round" stroke-width="5.000000"
	d="
M360.000000,283.500000 
	C355.652466,283.209290 352.217407,280.247437 348.026276,279.373962 
	C346.996979,279.159485 345.536285,277.949188 345.961182,275.991577 
	C346.678741,272.685699 344.913086,269.482269 344.824768,266.490417 
	C344.646881,260.463440 340.482239,257.477325 336.817535,255.308304 
	C332.660797,252.848099 327.184845,251.560638 322.000000,254.000000 
"/>
<path fill="none" opacity="1.000000" stroke="#c9a55c" stroke-linecap="round" stroke-linejoin="round" stroke-width="4.000000"
	d="
M193.500000,209.500000 
	C193.108429,206.010117 194.539658,202.537384 192.869919,198.944275 
	C191.561218,196.128067 189.511749,194.682388 186.992157,193.516968 
	C184.824432,192.514282 183.382553,192.858902 182.418350,195.469849 
	C181.305298,198.483826 179.634491,201.293045 179.000000,204.500000 
"/>
<path fill="none" opacity="1.000000" stroke="#c9a55c" stroke-linecap="round" stroke-linejoin="round" stroke-width="6.000000"
	d="
M373.500000,228.000000 
	C370.298920,226.775391 367.239441,226.373917 363.954803,228.167236 
	C361.833191,229.325592 359.239288,228.571426 357.024719,227.916458 
	C354.845917,227.272095 353.464020,226.140533 353.857758,222.982269 
	C355.061401,213.327866 351.724487,211.921524 342.489349,214.967667 
	C337.883942,216.486710 333.166656,217.666672 328.500000,219.000015 
"/>
<path fill="none" opacity="1.000000" stroke="#c9a55c" stroke-linecap="round" stroke-linejoin="round" stroke-width="3.000000"
	d="
M672.499939,331.000031 
	C674.833313,334.500031 677.464172,337.842499 679.422485,341.541046 
	C681.721313,345.882935 686.064819,347.613190 689.500000,350.500000 
"/>
<path fill="none" opacity="1.000000" stroke="#c9a55c" stroke-linecap="round" stroke-linejoin="round" stroke-width="6.000000"
	d="
M546.500000,301.500000 
	C546.454346,297.548706 548.313660,294.655731 551.577759,292.113831 
	C555.172119,295.155762 559.109558,297.113373 563.305176,298.946014 
	C566.315491,300.260986 568.963562,303.913971 572.513367,305.469574 
	C578.036804,307.890045 582.442993,306.672577 586.000000,302.000000 
"/>
<path fill="none" opacity="1.000000" stroke="#c9a55c" stroke-linecap="round" stroke-linejoin="round" stroke-width="5.000000"
	d="
M708.500000,331.500000 
	C700.646667,332.936707 693.585876,332.371948 688.951111,324.528900 
	C687.231201,321.618378 683.859314,320.706451 681.000000,319.250000 
"/>
<path fill="none" opacity="1.000000" stroke="#c9a55c" stroke-linecap="round" stroke-linejoin="round" stroke-width="5.000000"
	d="
M919.000000,490.000000 
	C922.634338,493.564636 927.431396,494.830200 932.010559,496.470428 
	C935.661133,497.778015 939.152344,499.283630 942.000000,502.000000 
"/>
<path fill="none" opacity="1.000000" stroke="#c9a55c" stroke-linecap="round" stroke-linejoin="round" stroke-width="3.000000"
	d="
M264.500000,325.000000 
	C257.462433,330.300690 249.740860,331.106628 241.500000,328.500000 
"/>
<path fill="none" opacity="1.000000" stroke="#c9a55c" stroke-linecap="round" stroke-linejoin="round" stroke-width="4.000000"
	d="
M810.500000,217.500000 
	C810.825806,225.163208 812.265625,232.802200 811.000000,240.500000 
"/>
<path fill="none" opacity="1.000000" stroke="#c9a55c" stroke-linecap="round" stroke-linejoin="round" stroke-width="5.000000"
	d="
M192.500000,313.500000 
	C186.037460,315.833099 179.100281,315.420807 172.475464,316.889282 
	C171.231781,317.164948 171.141769,317.966797 170.500000,318.500000 
"/>
<path fill="none" opacity="1.000000" stroke="#c9a55c" stroke-linecap="round" stroke-linejoin="round" stroke-width="5.000000"
	d="
M948.500000,224.500000 
	C945.251099,229.243118 940.631897,232.263870 935.482422,234.458725 
	C931.255371,236.260437 927.141541,238.050369 925.000000,242.500000 
"/>
<path fill="none" opacity="1.000000" stroke="#c9a55c" stroke-linecap="round" stroke-linejoin="round" stroke-width="3.000000"
	d="
M1073.000000,301.500000 
	C1076.608276,305.607758 1075.143311,310.812042 1075.922852,315.512787 
	C1076.353271,318.108093 1076.000000,320.833344 1076.000000,323.500000 
"/>
<path fill="none" opacity="1.000000" stroke="#c9a55c" stroke-linecap="round" stroke-linejoin="round" stroke-width="7.000000"
	d="
M38.999996,125.000000 
	C40.802208,126.699417 42.604416,128.398834 44.648132,130.325974 
	C43.047508,133.016266 44.766380,136.436279 43.117413,139.561935 
	C42.361469,140.994843 43.469559,143.372375 41.482540,144.468353 
	C39.307159,145.668213 37.125027,146.928757 34.500546,147.016296 
	C31.664804,147.110886 28.832142,147.315430 26.000254,147.503799 
	C20.529493,147.867737 19.190680,148.986069 18.030241,154.506363 
	C17.601425,156.546280 17.118288,158.193558 14.500000,157.500000 
"/>
<path fill="none" opacity="1.000000" stroke="#c9a55c" stroke-linecap="round" stroke-linejoin="round" stroke-width="3.000000"
	d="
M794.000000,305.000000 
	C788.257324,310.462006 785.656799,317.495483 784.006592,325.001465 
	C783.954163,325.239929 784.000000,325.500000 784.000000,325.750000 
	C783.833313,325.666656 783.666687,325.583344 783.500000,325.500000 
"/>
<path fill="none" opacity="1.000000" stroke="#c9a55c" stroke-linecap="round" stroke-linejoin="round" stroke-width="3.000000"
	d="
M323.500000,280.500000 
	C316.915405,284.079559 309.910095,286.396973 302.500000,287.500000 
"/>
<path fill="none" opacity="1.000000" stroke="#c9a55c" stroke-linecap="round" stroke-linejoin="round" stroke-width="2.000000"
	d="
M586.500000,367.500000 
	C584.333374,371.000000 582.492310,374.766418 579.908142,377.924835 
	C577.340576,381.063019 576.668030,384.250336 577.500000,388.000000 
"/>
<path fill="none" opacity="1.000000" stroke="#c9a55c" stroke-linecap="round" stroke-linejoin="round" stroke-width="4.000000"
	d="
M135.500000,199.500000 
	C138.210449,200.566589 140.969666,201.309525 143.598495,202.829666 
	C146.741089,204.646896 150.570038,203.549240 153.987076,202.459457 
	C155.892380,201.851791 157.666656,200.833328 159.500000,200.000000 
"/>
<path fill="none" opacity="1.000000" stroke="#c9a55c" stroke-linecap="round" stroke-linejoin="round" stroke-width="2.000000"
	d="
M328.000000,220.000000 
	C327.112030,217.386612 324.818695,217.768906 323.011780,218.070557 
	C318.173157,218.878326 313.326019,218.120865 308.500000,218.500000 
"/>
<path fill="none" opacity="1.000000" stroke="#c9a55c" stroke-linecap="round" stroke-linejoin="round" stroke-width="5.000000"
	d="
M1023.000000,479.000000 
	C1025.336060,483.355560 1023.512817,487.142822 1020.917786,490.435211 
	C1018.942322,492.941803 1018.322876,495.517578 1018.500000,498.500000 
"/>
<path fill="none" opacity="1.000000" stroke="#c9a55c" stroke-linecap="round" stroke-linejoin="round" stroke-width="6.000000"
	d="
M824.000000,542.000000 
	C820.475647,542.451904 820.183655,545.573364 818.983459,547.991760 
	C817.086548,551.813965 814.820557,555.495728 815.000000,560.000000 
"/>
<path fill="none" opacity="1.000000" stroke="#c9a55c" stroke-linecap="round" stroke-linejoin="round" stroke-width="4.000000"
	d="
M391.000000,214.000000 
	C395.319824,218.377563 399.920624,222.170517 406.494690,222.584213 
	C407.532532,222.649521 408.500000,223.833328 409.500000,224.500000 
"/>
<path fill="none" opacity="1.000000" stroke="#c9a55c" stroke-linecap="round" stroke-linejoin="round" stroke-width="3.000000"
	d="
M641.500000,271.500000 
	C642.718750,277.776581 641.084656,284.278412 643.000000,290.500000 
"/>
<path fill="none" opacity="1.000000" stroke="#c9a55c" stroke-linecap="round" stroke-linejoin="round" stroke-width="4.000000"
	d="
M956.000000,650.500000 
	C956.891174,660.049194 960.260681,662.545166 969.500000,660.500000 
"/>
<path fill="none" opacity="1.000000" stroke="#c9a55c" stroke-linecap="round" stroke-linejoin="round" stroke-width="5.000000"
	d="
M1063.500000,203.500000 
	C1067.568970,209.527847 1068.659790,216.013870 1066.262451,222.873886 
	C1068.236572,224.314667 1069.829712,222.761414 1071.500000,222.750000 
"/>
<path fill="none" opacity="1.000000" stroke="#c9a55c" stroke-linecap="round" stroke-linejoin="round" stroke-width="3.000000"
	d="
M255.500000,277.000000 
	C261.353790,280.731476 265.285767,285.950806 267.500000,292.500000 
"/>
<path fill="none" opacity="1.000000" stroke="#c9a55c" stroke-linecap="round" stroke-linejoin="round" stroke-width="8.000000"
	d="
M506.500000,321.500000 
	C503.665100,320.337067 500.830200,319.174164 497.796997,317.929901 
	C493.631775,321.195496 495.030945,326.290222 494.168335,330.534210 
	C493.630707,333.179565 493.160065,335.863342 492.500000,338.500000 
"/>
<path fill="none" opacity="1.000000" stroke="#c9a55c" stroke-linecap="round" stroke-linejoin="round" stroke-width="5.000000"
	d="
M237.500000,314.000000 
	C232.903763,317.423737 226.931091,318.255951 222.484238,321.981171 
	C221.763184,322.585236 220.867294,322.391998 219.994659,322.012268 
	C212.551605,318.773163 207.417603,322.047760 203.250000,328.000000 
"/>
<path fill="none" opacity="1.000000" stroke="#c9a55c" stroke-linecap="round" stroke-linejoin="round" stroke-width="6.000000"
	d="
M1025.500000,687.500000 
	C1022.873657,692.363281 1022.247559,698.122864 1018.570557,702.558533 
	C1017.627686,703.695984 1016.709534,704.709534 1015.500000,705.500000 
"/>
<path fill="none" opacity="1.000000" stroke="#c9a55c" stroke-linecap="round" stroke-linejoin="round" stroke-width="3.000000"
	d="
M1078.500000,202.500000 
	C1077.761841,207.222778 1077.350586,211.985764 1075.593872,216.536224 
	C1074.973511,218.142792 1074.118530,219.344894 1073.000000,220.500000 
"/>
<path fill="none" opacity="1.000000" stroke="#c9a55c" stroke-linecap="round" stroke-linejoin="round" stroke-width="3.000000"
	d="
M1036.500000,521.500000 
	C1038.161133,529.821716 1041.762817,533.279297 1049.000000,533.500000 
"/>
<path fill="none" opacity="1.000000" stroke="#c9a55c" stroke-linecap="round" stroke-linejoin="round" stroke-width="3.000000"
	d="
M604.999939,280.499969 
	C605.918579,277.967072 606.837219,275.434143 607.855408,272.626678 
	C604.274170,267.541687 599.263428,264.572968 592.500000,265.000000 
"/>
<path fill="none" opacity="1.000000" stroke="#c9a55c" stroke-linecap="round" stroke-linejoin="round" stroke-width="8.000000"
	d="
M919.500000,355.500000 
	C919.117554,360.997009 921.233582,366.573425 918.603638,372.049774 
	C917.804260,373.714325 919.810974,375.343262 920.511047,376.995300 
	C921.296570,378.848907 922.166687,380.666656 923.000000,382.500000 
"/>
<path fill="none" opacity="1.000000" stroke="#c9a55c" stroke-linecap="round" stroke-linejoin="round" stroke-width="4.000000"
	d="
M1076.000000,353.500000 
	C1077.337280,359.791718 1076.965088,365.476837 1070.500000,369.000000 
"/>
<path fill="none" opacity="1.000000" stroke="#c9a55c" stroke-linecap="round" stroke-linejoin="round" stroke-width="4.000000"
	d="
M995.500000,637.500000 
	C997.899963,643.565674 999.368591,650.195801 1005.500000,654.000000 
"/>
<path fill="none" opacity="1.000000" stroke="#c9a55c" stroke-linecap="round" stroke-linejoin="round" stroke-width="6.000000"
	d="
M951.500000,181.500000 
	C952.932190,187.227585 956.641113,191.984741 958.381653,197.537094 
	C958.947693,199.342819 960.187866,199.173050 960.997986,199.155685 
	C963.813782,199.095367 964.801147,200.946304 965.750000,203.000000 
"/>
<path fill="none" opacity="1.000000" stroke="#c9a55c" stroke-linecap="round" stroke-linejoin="round" stroke-width="3.000000"
	d="
M549.000000,334.500000 
	C544.206238,336.687469 539.899170,340.502319 534.001221,338.995178 
	C533.491882,338.865021 533.000000,338.666687 532.500000,338.500000 
"/>
<path fill="none" opacity="1.000000" stroke="#c9a55c" stroke-linecap="round" stroke-linejoin="round" stroke-width="4.000000"
	d="
M25.500000,105.500000 
	C28.820473,106.703415 31.956329,108.416183 35.494709,109.030464 
	C36.198048,109.152573 36.890629,110.037003 37.491344,109.944061 
	C45.588440,108.691399 51.612118,113.971107 58.500000,116.500000 
"/>
<path fill="none" opacity="1.000000" stroke="#c9a55c" stroke-linecap="round" stroke-linejoin="round" stroke-width="6.000000"
	d="
M623.000000,352.000000 
	C619.355774,356.953064 620.301086,362.202209 622.000000,367.500000 
"/>
<path fill="none" opacity="1.000000" stroke="#c9a55c" stroke-linecap="round" stroke-linejoin="round" stroke-width="3.000000"
	d="
M812.000000,530.500000 
	C811.523987,536.109619 807.738342,540.395325 806.000000,545.500000 
"/>
<path fill="none" opacity="1.000000" stroke="#c9a55c" stroke-linecap="round" stroke-linejoin="round" stroke-width="7.000000"
	d="
M38.500000,110.500000 
	C39.034679,114.542259 36.424541,118.010849 36.378777,121.998611 
	C36.367966,122.940590 34.696735,123.286934 33.500000,122.750000 
"/>
<path fill="none" opacity="1.000000" stroke="#c9a55c" stroke-linecap="round" stroke-linejoin="round" stroke-width="2.000000"
	d="
M1014.000000,532.500000 
	C1015.830750,537.944031 1013.534180,542.700134 1011.500000,547.500000 
"/>
<path fill="none" opacity="1.000000" stroke="#c9a55c" stroke-linecap="round" stroke-linejoin="round" stroke-width="6.000000"
	d="
M1006.500000,557.500000 
	C1006.500000,560.333313 1006.258728,563.192017 1006.552734,565.994446 
	C1007.081543,571.034790 1010.746582,573.852905 1016.999390,573.830505 
	C1017.837097,573.827454 1018.666687,573.985229 1019.500000,574.000000 
"/>
<path fill="none" opacity="1.000000" stroke="#c9a55c" stroke-linecap="round" stroke-linejoin="round" stroke-width="5.000000"
	d="
M1039.500000,75.500000 
	C1046.515259,74.284843 1052.514160,78.733261 1053.451050,86.006302 
	C1053.637329,87.451599 1053.389282,88.821922 1055.500000,88.500000 
"/>
<path fill="none" opacity="1.000000" stroke="#c9a55c" stroke-linecap="round" stroke-linejoin="round" stroke-width="5.000000"
	d="
M144.500000,188.000000 
	C138.931015,186.293030 134.280380,187.341125 131.000000,192.500000 
"/>
<path fill="none" opacity="1.000000" stroke="#c9a55c" stroke-linecap="round" stroke-linejoin="round" stroke-width="5.000000"
	d="
M1017.000000,690.500000 
	C1014.922058,684.569702 1010.103882,682.921021 1004.500000,682.500000 
"/>
<path fill="none" opacity="1.000000" stroke="#c9a55c" stroke-linecap="round" stroke-linejoin="round" stroke-width="4.000000"
	d="
M701.500000,296.500000 
	C702.602722,301.118561 705.702271,305.380554 704.000000,310.500000 
"/>
<path fill="none" opacity="1.000000" stroke="#c9a55c" stroke-linecap="round" stroke-linejoin="round" stroke-width="3.000000"
	d="
M622.500000,274.500000 
	C621.166687,275.331268 619.419495,274.879059 618.573364,274.376526 
	C615.319641,272.444183 611.901245,273.047241 608.500000,273.000000 
"/>
<path fill="none" opacity="1.000000" stroke="#c9a55c" stroke-linecap="round" stroke-linejoin="round" stroke-width="4.000000"
	d="
M577.500000,356.500000 
	C573.146545,359.459747 568.718872,362.271118 563.500000,363.500000 
"/>
<path fill="none" opacity="1.000000" stroke="#c9a55c" stroke-linecap="round" stroke-linejoin="round" stroke-width="9.000000"
	d="
M287.000000,255.500000 
	C288.677643,263.208069 292.034271,264.920807 297.984772,260.977051 
	C300.717804,259.165710 303.395538,257.690033 306.490540,260.012634 
	C309.716125,262.433228 310.731384,265.628693 309.500000,269.500000 
"/>
<path fill="none" opacity="1.000000" stroke="#c9a55c" stroke-linecap="round" stroke-linejoin="round" stroke-width="5.000000"
	d="
M557.500000,297.500000 
	C555.240540,300.276733 556.703186,304.576691 553.530396,307.039215 
	C552.560242,307.792175 551.880493,308.904083 550.500000,309.000000 
"/>
<path fill="none" opacity="1.000000" stroke="#c9a55c" stroke-linecap="round" stroke-linejoin="round" stroke-width="7.000000"
	d="
M95.500000,207.000000 
	C94.166664,207.333328 92.807800,208.026184 91.504715,207.933624 
	C87.345375,207.638153 85.496346,210.649124 84.692650,213.553314 
	C83.884583,216.473343 83.937988,220.070908 87.500000,222.000000 
"/>
<path fill="none" opacity="1.000000" stroke="#c9a55c" stroke-linecap="round" stroke-linejoin="round" stroke-width="4.000000"
	d="
M598.500000,381.000000 
	C601.857788,385.203003 607.081299,384.555267 611.500000,386.000000 
"/>
<path fill="none" opacity="1.000000" stroke="#c9a55c" stroke-linecap="round" stroke-linejoin="round" stroke-width="3.000000"
	d="
M1048.000000,338.500000 
	C1048.370239,343.139954 1048.538940,347.824677 1051.000000,352.000000 
"/>
<path fill="none" opacity="1.000000" stroke="#c9a55c" stroke-linecap="round" stroke-linejoin="round" stroke-width="6.000000"
	d="
M55.000000,124.000000 
	C53.624889,129.179321 49.211937,129.685028 45.000000,130.500000 
"/>
<path fill="none" opacity="1.000000" stroke="#c9a55c" stroke-linecap="round" stroke-linejoin="round" stroke-width="5.000000"
	d="
M18.000000,158.500000 
	C18.500000,159.000000 18.986168,159.514771 19.502142,159.997711 
	C24.408289,164.589661 25.036715,164.616592 30.582104,160.438141 
	C33.998798,161.419662 37.433758,162.478836 40.505653,164.491379 
	C43.749332,166.616470 46.492332,163.764328 49.500000,163.500000 
"/>
<path fill="none" opacity="1.000000" stroke="#c9a55c" stroke-linecap="round" stroke-linejoin="round" stroke-width="5.000000"
	d="
M962.500000,368.500000 
	C964.567932,372.595917 965.424622,376.924744 965.000000,381.500000 
"/>
<path fill="none" opacity="1.000000" stroke="#c9a55c" stroke-linecap="round" stroke-linejoin="round" stroke-width="3.000000"
	d="
M993.500000,546.500000 
	C994.921936,549.695068 995.122559,553.066589 995.021484,556.500610 
	C994.988708,557.616089 994.669373,558.335388 993.500000,558.500000 
"/>
<path fill="none" opacity="1.000000" stroke="#c9a55c" stroke-linecap="round" stroke-linejoin="round" stroke-width="5.000000"
	d="
M238.000000,197.500000 
	C239.494995,201.362152 241.442886,205.129959 240.500000,209.500000 
"/>
<path fill="none" opacity="1.000000" stroke="#c9a55c" stroke-linecap="round" stroke-linejoin="round" stroke-width="6.000000"
	d="
M1052.000000,353.250000 
	C1058.004883,354.603271 1057.877197,361.127594 1061.463745,364.538177 
	C1062.054932,365.100403 1062.166626,366.166656 1062.500000,367.000000 
"/>
<path fill="none" opacity="1.000000" stroke="#c9a55c" stroke-linecap="round" stroke-linejoin="round" stroke-width="2.000000"
	d="
M853.500000,314.500000 
	C850.781128,318.056213 849.073181,322.801758 843.500000,323.000000 
"/>
<path fill="none" opacity="1.000000" stroke="#c9a55c" stroke-linecap="round" stroke-linejoin="round" stroke-width="5.000000"
	d="
M5.500000,146.500000 
	C7.812214,143.513382 12.444700,142.981415 16.457100,145.566589 
	C17.784781,146.422012 19.478539,147.188126 20.000000,149.000000 
"/>
<path fill="none" opacity="1.000000" stroke="#c9a55c" stroke-linecap="round" stroke-linejoin="round" stroke-width="3.000000"
	d="
M237.500000,328.500000 
	C233.105209,328.947235 229.552643,331.640381 225.500000,333.000000 
"/>
<path fill="none" opacity="1.000000" stroke="#c9a55c" stroke-linecap="round" stroke-linejoin="round" stroke-width="6.000000"
	d="
M825.500000,241.000000 
	C821.500000,241.333344 817.500000,241.666672 813.500000,242.000000 
"/>
<path fill="none" opacity="1.000000" stroke="#c9a55c" stroke-linecap="round" stroke-linejoin="round" stroke-width="3.000000"
	d="
M1066.500000,514.500000 
	C1064.476318,518.948364 1065.679688,522.858948 1068.500000,526.500000 
"/>
<path fill="none" opacity="1.000000" stroke="#c9a55c" stroke-linecap="round" stroke-linejoin="round" stroke-width="3.000000"
	d="
M999.500000,624.500000 
	C998.166809,630.083557 993.270508,630.322388 989.000000,631.500000 
"/>
<path fill="none" opacity="1.000000" stroke="#c9a55c" stroke-linecap="round" stroke-linejoin="round" stroke-width="10.000000"
	d="
M274.500000,259.500000 
	C270.611053,251.789047 263.507202,254.558350 257.507629,254.744919 
	C255.675659,254.801880 253.520203,255.287872 251.500000,255.500000 
"/>
<path fill="none" opacity="1.000000" stroke="#c9a55c" stroke-linecap="round" stroke-linejoin="round" stroke-width="6.000000"
	d="
M221.000000,323.000000 
	C221.500870,327.277496 223.338562,331.109375 225.000000,335.000000 
"/>
<path fill="none" opacity="1.000000" stroke="#c9a55c" stroke-linecap="round" stroke-linejoin="round" stroke-width="4.000000"
	d="
M42.500004,166.000000 
	C42.166668,167.166672 41.548779,168.333786 41.550674,169.499924 
	C41.557781,173.879349 40.974773,178.027359 38.000000,181.500000 
"/>
<path fill="none" opacity="1.000000" stroke="#c9a55c" stroke-linecap="round" stroke-linejoin="round" stroke-width="5.000000"
	d="
M731.000000,277.500000 
	C731.019409,279.990295 732.338806,281.893280 734.032166,283.465332 
	C735.562805,284.886322 736.526978,286.517151 737.000000,288.500000 
"/>
<path fill="none" opacity="1.000000" stroke="#c9a55c" stroke-linecap="round" stroke-linejoin="round" stroke-width="4.000000"
	d="
M292.000000,263.500000 
	C289.152771,266.319427 287.115479,269.948822 283.500000,272.000000 
"/>
<path fill="none" opacity="1.000000" stroke="#c9a55c" stroke-linecap="round" stroke-linejoin="round" stroke-width="5.000000"
	d="
M852.500000,583.500000 
	C851.160889,583.678162 850.429016,582.832825 849.442322,582.075134 
	C847.466980,580.558289 845.224670,579.173645 842.500000,580.500000 
"/>
<path fill="none" opacity="1.000000" stroke="#c9a55c" stroke-linecap="round" stroke-linejoin="round" stroke-width="3.000000"
	d="
M943.000061,568.000061 
	C939.666687,571.000061 936.333374,574.000061 933.000061,577.000061 
"/>
<path fill="none" opacity="1.000000" stroke="#c9a55c" stroke-linecap="round" stroke-linejoin="round" stroke-width="3.000000"
	d="
M983.000061,625.500000 
	C983.333374,626.166626 983.489258,627.148438 984.027405,627.451416 
	C989.599609,630.589111 989.372620,635.007141 987.025452,640.011963 
	C986.675049,640.759155 986.666626,641.666626 986.499939,642.500000 
"/>
<path fill="none" opacity="1.000000" stroke="#c9a55c" stroke-linecap="round" stroke-linejoin="round" stroke-width="7.000000"
	d="
M1084.500000,69.000000 
	C1079.164062,70.973152 1074.354614,73.548119 1072.500000,79.500000 
"/>
<path fill="none" opacity="1.000000" stroke="#c9a55c" stroke-linecap="round" stroke-linejoin="round" stroke-width="3.000000"
	d="
M803.500000,241.000000 
	C806.333313,242.237808 809.166687,240.906387 812.000000,241.000977 
	C814.888916,247.554871 814.888916,247.554871 820.500000,246.500000 
"/>
<path fill="none" opacity="1.000000" stroke="#c9a55c" stroke-linecap="round" stroke-linejoin="round" stroke-width="4.000000"
	d="
M917.500000,668.500000 
	C917.000000,672.833313 916.500000,677.166687 916.000000,681.500000 
"/>
<path fill="none" opacity="1.000000" stroke="#c9a55c" stroke-linecap="round" stroke-linejoin="round" stroke-width="4.000000"
	d="
M74.500000,178.000000 
	C71.923271,181.179871 68.151939,181.970551 64.500000,183.000000 
"/>
<path fill="none" opacity="1.000000" stroke="#c9a55c" stroke-linecap="round" stroke-linejoin="round" stroke-width="4.000000"
	d="
M765.500000,493.000000 
	C769.504944,494.373932 771.462097,498.673248 775.500000,500.000000 
"/>
<path fill="none" opacity="1.000000" stroke="#c9a55c" stroke-linecap="round" stroke-linejoin="round" stroke-width="4.000000"
	d="
M750.000000,508.000000 
	C752.443787,510.719604 752.065063,514.776184 754.500000,517.500000 
"/>
<path fill="none" opacity="1.000000" stroke="#c9a55c" stroke-linecap="round" stroke-linejoin="round" stroke-width="4.000000"
	d="
M494.500000,356.000000 
	C491.442200,357.189453 487.951050,355.634369 485.000000,357.500000 
"/>
<path fill="none" opacity="1.000000" stroke="#c9a55c" stroke-linecap="round" stroke-linejoin="round" stroke-width="9.000000"
	d="
M1028.000000,128.000000 
	C1019.604065,128.305679 1011.280334,128.739380 1008.500000,139.000000 
"/>
<path fill="none" opacity="1.000000" stroke="#c9a55c" stroke-linecap="round" stroke-linejoin="round" stroke-width="4.000000"
	d="
M920.000000,182.000000 
	C922.107300,184.679871 922.012817,187.848999 922.000000,191.000000 
"/>
<path fill="none" opacity="1.000000" stroke="#c9a55c" stroke-linecap="round" stroke-linejoin="round" stroke-width="3.000000"
	d="
M1049.000000,599.500000 
	C1049.915161,602.851501 1047.344727,605.428467 1047.000000,608.500000 
"/>
<path fill="none" opacity="1.000000" stroke="#c9a55c" stroke-linecap="round" stroke-linejoin="round" stroke-width="3.000000"
	d="
M999.000000,584.500000 
	C997.963806,587.410645 996.274902,590.212463 997.500000,593.500000 
"/>
<path fill="none" opacity="1.000000" stroke="#c9a55c" stroke-linecap="round" stroke-linejoin="round" stroke-width="3.000000"
	d="
M725.500000,498.000000 
	C729.887512,498.881531 728.395081,502.283051 728.500000,505.000000 
"/>
<path fill="none" opacity="1.000000" stroke="#c9a55c" stroke-linecap="round" stroke-linejoin="round" stroke-width="7.000000"
	d="
M355.500000,276.000000 
	C363.141327,279.008453 360.672699,285.386871 360.500000,291.000000 
"/>
<path fill="none" opacity="1.000000" stroke="#c9a55c" stroke-linecap="round" stroke-linejoin="round" stroke-width="2.000000"
	d="
M594.000000,346.000000 
	C590.528992,345.618073 588.177429,347.954712 585.500000,349.500000 
"/>
<path fill="none" opacity="1.000000" stroke="#c9a55c" stroke-linecap="round" stroke-linejoin="round" stroke-width="2.000000"
	d="
M217.000000,281.000000 
	C217.161530,283.969055 218.380539,286.444641 220.500000,288.500000 
"/>
<path fill="none" opacity="1.000000" stroke="#c9a55c" stroke-linecap="round" stroke-linejoin="round" stroke-width="2.000000"
	d="
M200.500000,277.500000 
	C203.106903,278.622925 205.700272,279.962341 208.500000,278.000000 
"/>
<path fill="none" opacity="1.000000" stroke="#c9a55c" stroke-linecap="round" stroke-linejoin="round" stroke-width="3.000000"
	d="
M985.000000,557.500000 
	C985.374146,559.159668 985.748352,560.819275 986.234009,562.973633 
	C981.859802,562.958557 979.068604,565.553101 976.500000,568.500000 
"/>
<path fill="none" opacity="1.000000" stroke="#c9a55c" stroke-linecap="round" stroke-linejoin="round" stroke-width="3.000000"
	d="
M515.500000,205.500000 
	C512.980164,206.646851 510.582794,207.916107 510.000000,211.000000 
"/>
<path fill="none" opacity="1.000000" stroke="#c9a55c" stroke-linecap="round" stroke-linejoin="round" stroke-width="3.000000"
	d="
M778.500000,308.500000 
	C777.616516,310.815430 778.184021,313.649078 776.000000,315.500000 
"/>
<path fill="none" opacity="1.000000" stroke="#c9a55c" stroke-linecap="round" stroke-linejoin="round" stroke-width="3.000000"
	d="
M333.500000,266.000000 
	C333.695984,268.718658 330.493469,269.868774 330.500000,272.500000 
"/>
<path fill="none" opacity="1.000000" stroke="#c9a55c" stroke-linecap="round" stroke-linejoin="round" stroke-width="3.000000"
	d="
M931.000000,685.500000 
	C931.500000,687.500000 932.000000,689.500000 932.500000,691.500000 
"/>
<path fill="none" opacity="1.000000" stroke="#c9a55c" stroke-linecap="round" stroke-linejoin="round" stroke-width="3.000000"
	d="
M782.000000,365.000000 
	C779.637573,364.146698 779.247314,360.882935 776.500000,360.500000 
"/>
<path fill="none" opacity="1.000000" stroke="#c9a55c" stroke-linecap="round" stroke-linejoin="round" stroke-width="3.000000"
	d="
M330.500000,165.000000 
	C328.778473,167.004196 326.487000,165.588654 324.500000,166.000000 
"/>
<path fill="none" opacity="1.000000" stroke="#c9a55c" stroke-linecap="round" stroke-linejoin="round" stroke-width="3.000000"
	d="
M86.000000,202.500000 
	C85.565636,204.733597 86.769112,206.557724 87.500000,208.500000 
"/>
<path fill="none" opacity="1.000000" stroke="#c9a55c" stroke-linecap="round" stroke-linejoin="round" stroke-width="3.000000"
	d="
M159.000000,300.500000 
	C159.706757,302.235748 160.758545,303.669617 162.500000,304.500000 
"/>
<path fill="none" opacity="1.000000" stroke="#c9a55c" stroke-linecap="round" stroke-linejoin="round" stroke-width="2.000000"
	d="
M939.000000,610.500000 
	C940.166687,611.500000 941.333313,612.500000 942.500000,613.500000 
"/>
<path fill="none" opacity="1.000000" stroke="#c9a55c" stroke-linecap="round" stroke-linejoin="round" stroke-width="3.000000"
	d="
M823.000000,538.500000 
	C823.681274,540.258057 823.423767,542.837524 826.500000,542.500000 
"/>
</svg>